<?xml version="1.0" encoding="utf-8"?>
<!-- Generator: Adobe Illustrator 20.0.0, SVG Export Plug-In . SVG Version: 6.00 Build 0)  -->
<svg version="1.1" xmlns="http://www.w3.org/2000/svg" xmlns:xlink="http://www.w3.org/1999/xlink" x="0px" y="0px"
	 viewBox="0 0 97.7 64.1" style="enable-background:new 0 0 97.7 64.1;" xml:space="preserve">
<style type="text/css">
	.st0{display:none;}
	.st1{display:inline;fill:none;stroke:#000000;stroke-width:3;stroke-linecap:round;}
	.st2{display:inline;}
	.st3{display:inline;fill:none;stroke:#000000;stroke-width:3;stroke-linecap:round;stroke-linejoin:round;}
	.st4{display:inline;stroke:#000000;stroke-width:3;stroke-linecap:round;stroke-linejoin:round;}
	.st5{display:inline;fill:none;stroke:#000000;stroke-width:3;stroke-linecap:round;stroke-linejoin:round;stroke-miterlimit:10;}
	.st6{display:inline;stroke:#000000;stroke-width:3;stroke-linecap:round;stroke-linejoin:round;stroke-miterlimit:10;}
	.st7{display:inline;fill:none;stroke:#000000;stroke-width:3;stroke-miterlimit:10;}
	.st8{fill:none;stroke:#000000;stroke-width:3;stroke-linecap:round;stroke-linejoin:round;stroke-dasharray:0,6.0084;}
	.st9{display:inline;fill:none;stroke:#000000;stroke-width:3;}
	.st10{fill:none;stroke:#000000;stroke-width:3;stroke-linecap:round;stroke-linejoin:round;}
	.st11{fill:#757575;}
	.st12{fill:#757575;stroke:#000000;stroke-width:3;stroke-miterlimit:10;}
</style>
<g id="Layer_1" class="st0">
	<g>
		<line class="st1" x1="47.7" y1="13.9" x2="47.7" y2="47.9"/>
		<path class="st1" d="M41.2,40.1c0.7,1,2.9,2.8,6.5,2.8c3.8,0,6.5-2.6,6.5-5.5c0-7.2-13-5.6-13-13c0-2.9,2.7-5.5,6.5-5.5
			c3.6,0,5.7,1.7,6.5,2.8"/>
	</g>
	<g>
		<path class="st2" d="M55.7,37.4c0-4.2-3.4-6-6.5-7.4v-9.4c2,0.4,3.3,1.4,3.7,2c0.5,0.7,1.4,0.8,2.1,0.4c0.7-0.5,0.8-1.4,0.4-2.1
			c-1-1.4-3.1-2.9-6.2-3.3v-3.7c0-0.8-0.7-1.5-1.5-1.5s-1.5,0.7-1.5,1.5v3.6c-3.7,0.6-6.5,3.4-6.5,6.9c0,4.3,3.4,6.2,6.5,7.5v9.3
			c-2.1-0.4-3.3-1.4-3.8-2c-0.5-0.7-1.4-0.9-2.1-0.4c-0.7,0.5-0.9,1.4-0.4,2.1c0.9,1.4,3.1,3,6.2,3.4v3.6c0,0.8,0.7,1.5,1.5,1.5
			s1.5-0.7,1.5-1.5v-3.6C52.9,43.7,55.7,40.9,55.7,37.4z M42.7,24.4c0-1.6,1.3-3.3,3.5-3.8v8C44,27.5,42.7,26.4,42.7,24.4z
			 M49.2,41.2v-7.9c2.2,1.1,3.5,2.1,3.5,4.1C52.7,39,51.4,40.7,49.2,41.2z"/>
		<path class="st2" d="M47.8,52.9c0-0.8,0.6-1.5,1.4-1.6l0,0c0.8-0.1,1.5,0.6,1.6,1.4l0,0c0.1,0.8-0.6,1.5-1.4,1.6l0,0h-0.1l0,0
			C48.5,54.3,47.8,53.7,47.8,52.9z M43,53.9c-0.8-0.2-1.3-1-1.2-1.8l0,0c0.2-0.8,1-1.3,1.8-1.2l0,0c0.8,0.2,1.3,1,1.2,1.8l0,0
			c-0.1,0.7-0.8,1.2-1.5,1.2l0,0C43.2,54,43.1,53.9,43,53.9z M53.7,52.1c-0.3-0.8,0.1-1.6,0.9-1.9l0,0c0.8-0.3,1.6,0.1,1.9,0.9l0,0
			c0.3,0.8-0.1,1.6-0.9,1.9l0,0c-0.2,0.1-0.3,0.1-0.5,0.1l0,0C54.5,53.1,53.9,52.7,53.7,52.1z M37,51.8c-0.7-0.4-1-1.3-0.6-2l0,0
			c0.4-0.7,1.3-1,2-0.6l0,0c0.7,0.4,1,1.3,0.6,2l0,0c-0.3,0.5-0.8,0.8-1.3,0.8l0,0C37.4,52,37.2,51.9,37,51.8z M59.2,49.7
			c-0.5-0.7-0.3-1.6,0.3-2.1l0,0c0.7-0.5,1.6-0.3,2.1,0.3l0,0c0.5,0.7,0.3,1.6-0.4,2.1l0,0l0,0l0,0c-0.3,0.2-0.6,0.3-0.9,0.3l0,0
			C60,50.3,59.5,50.1,59.2,49.7z M31.7,48.1c-0.6-0.6-0.6-1.5-0.1-2.1l0,0c0.6-0.6,1.5-0.6,2.1-0.1l0,0c0.6,0.6,0.6,1.5,0.1,2.1l0,0
			c-0.3,0.3-0.7,0.5-1.1,0.5l0,0C32.4,48.5,32,48.4,31.7,48.1z M63.9,45.9c-0.7-0.5-0.8-1.5-0.2-2.1l0,0c0.5-0.6,1.5-0.8,2.1-0.2
			l0,0c0.6,0.5,0.7,1.5,0.2,2.1l0,0l0,0l0,0c-0.3,0.4-0.7,0.5-1.2,0.5l0,0C64.5,46.2,64.1,46.1,63.9,45.9z M27.7,43.2
			c-0.4-0.7-0.2-1.6,0.5-2.1l0,0c0.7-0.4,1.6-0.2,2.1,0.5l0,0c0.4,0.7,0.2,1.6-0.5,2.1l0,0c-0.2,0.1-0.5,0.2-0.8,0.2l0,0
			C28.4,43.9,27.9,43.7,27.7,43.2z M67.3,41c-0.8-0.3-1.1-1.2-0.8-2l0,0c0.3-0.8,1.2-1.1,2-0.8l0,0c0.8,0.3,1.1,1.2,0.8,2l0,0l0,0
			l0,0c-0.2,0.6-0.8,0.9-1.4,0.9l0,0C67.7,41.1,67.5,41.1,67.3,41z M25.1,37.3c-0.2-0.8,0.2-1.6,1-1.8l0,0c0.8-0.2,1.6,0.2,1.9,1
			l0,0c0.2,0.8-0.2,1.6-1,1.9l0,0c-0.1,0-0.3,0.1-0.4,0.1l0,0C25.9,38.4,25.3,38,25.1,37.3z M69.3,35.3c-0.8-0.1-1.4-0.9-1.3-1.7
			l0,0c0.1-0.8,0.9-1.4,1.7-1.3l0,0c0.8,0.1,1.4,0.9,1.3,1.7l0,0c-0.1,0.8-0.8,1.3-1.5,1.3l0,0C69.4,35.4,69.4,35.3,69.3,35.3z
			 M24.2,31L24.2,31L24.2,31C24.2,30.9,24.2,30.9,24.2,31L24.2,31L24.2,31L24.2,31c0-0.9,0.7-1.6,1.5-1.6l0,0c0.8,0,1.5,0.7,1.5,1.5
			l0,0l0,0l0,0l0,0l0,0c0,0.8-0.7,1.5-1.5,1.5l0,0C24.9,32.5,24.2,31.8,24.2,31z M24.2,31L24.2,31L24.2,31L24.2,31L24.2,31L24.2,31z
			 M68,28.1c-0.1-0.8,0.5-1.6,1.3-1.7l0,0c0.8-0.1,1.6,0.5,1.7,1.3l0,0l0,0l0,0c0.1,0.8-0.5,1.6-1.3,1.7l0,0c-0.1,0-0.1,0-0.2,0l0,0
			C68.7,29.4,68.1,28.8,68,28.1z M26.1,26.4c-0.8-0.2-1.3-1-1-1.9l0,0l0,0l0,0c0.2-0.8,1-1.3,1.8-1l0,0c0.8,0.2,1.3,1.1,1,1.9l0,0
			c-0.2,0.7-0.8,1.1-1.4,1.1l0,0C26.4,26.5,26.2,26.4,26.1,26.4z M66.5,22.7L66.5,22.7c-0.3-0.8,0-1.6,0.8-2l0,0
			c0.8-0.3,1.7,0,2,0.8l0,0c0.3,0.8,0,1.6-0.8,2l0,0c-0.2,0.1-0.4,0.1-0.6,0.1l0,0C67.3,23.6,66.7,23.3,66.5,22.7z M28.1,20.7
			c-0.7-0.4-0.9-1.3-0.5-2.1l0,0l0,0l0,0c0.4-0.7,1.4-0.9,2.1-0.5l0,0c0.7,0.4,0.9,1.4,0.5,2.1l0,0c-0.3,0.5-0.8,0.7-1.3,0.7l0,0
			C28.6,21,28.4,20.9,28.1,20.7z M63.6,17.9c-0.5-0.6-0.4-1.6,0.2-2.1l0,0c0.6-0.5,1.6-0.4,2.1,0.2l0,0c0.5,0.6,0.4,1.6-0.2,2.1l0,0
			c-0.3,0.2-0.6,0.3-1,0.3l0,0C64.3,18.5,63.9,18.3,63.6,17.9z M31.6,15.8c-0.6-0.6-0.5-1.5,0.1-2.1l0,0c0.6-0.6,1.6-0.5,2.1,0.1
			l0,0c0.6,0.6,0.5,1.6-0.1,2.1l0,0c-0.3,0.3-0.7,0.4-1,0.4l0,0C32.3,16.3,31.9,16.2,31.6,15.8z M59.5,14.1
			c-0.7-0.5-0.8-1.4-0.4-2.1l0,0c0.5-0.7,1.4-0.8,2.1-0.4l0,0c0.7,0.5,0.8,1.4,0.4,2.1l0,0c-0.3,0.4-0.8,0.6-1.2,0.6l0,0
			C60.1,14.4,59.8,14.3,59.5,14.1z M36.2,12.1c-0.4-0.7-0.1-1.6,0.6-2l0,0c0.7-0.4,1.6-0.1,2,0.6l0,0c0.4,0.7,0.1,1.6-0.6,2l0,0
			c-0.2,0.1-0.5,0.2-0.7,0.2l0,0C37,12.9,36.5,12.6,36.2,12.1z M54.5,11.6c-0.8-0.3-1.2-1.1-0.9-1.9l0,0c0.3-0.8,1.1-1.2,1.9-0.9
			l0,0c0.8,0.3,1.2,1.1,0.9,1.9l0,0c-0.2,0.6-0.8,1-1.4,1l0,0C54.9,11.7,54.7,11.6,54.5,11.6z M41.7,9.7c-0.2-0.8,0.3-1.6,1.2-1.8
			l0,0c0.8-0.2,1.6,0.4,1.8,1.2l0,0c0.2,0.8-0.4,1.6-1.2,1.8l0,0c-0.1,0-0.2,0-0.3,0l0,0C42.5,10.9,41.9,10.4,41.7,9.7z M49.1,10.4
			L49.1,10.4c-0.8-0.1-1.5-0.8-1.4-1.6l0,0c0-0.8,0.8-1.4,1.6-1.4l0,0l0,0l0,0c0.8,0,1.5,0.8,1.4,1.6l0,0
			C50.6,9.8,50,10.4,49.1,10.4L49.1,10.4L49.1,10.4z"/>
		<path class="st2" d="M47.7,59.4c-15.7,0-28.5-12.8-28.5-28.5S32,2.4,47.7,2.4s28.5,12.8,28.5,28.5S63.4,59.4,47.7,59.4z M47.7,5.4
			c-14.1,0-25.5,11.4-25.5,25.5s11.4,25.5,25.5,25.5S73.2,45,73.2,30.9S61.8,5.4,47.7,5.4z"/>
	</g>
	<g>
		<path class="st2" d="M50.7,32.4c0-4.2-3.4-6-6.5-7.4v-9.4c2,0.4,3.3,1.4,3.7,2c0.5,0.7,1.4,0.8,2.1,0.4c0.7-0.5,0.8-1.4,0.4-2.1
			c-1-1.4-3.1-2.9-6.2-3.3V8.9c0-0.8-0.7-1.5-1.5-1.5s-1.5,0.7-1.5,1.5v3.6c-3.7,0.6-6.5,3.4-6.5,6.9c0,4.3,3.4,6.2,6.5,7.5v9.3
			c-2.1-0.4-3.3-1.4-3.8-2c-0.5-0.7-1.4-0.9-2.1-0.4c-0.7,0.5-0.9,1.4-0.4,2.1c0.9,1.4,3.1,3,6.2,3.4v3.6c0,0.8,0.7,1.5,1.5,1.5
			s1.5-0.7,1.5-1.5v-3.6C47.9,38.7,50.7,35.9,50.7,32.4z M37.7,19.4c0-1.6,1.3-3.3,3.5-3.8v8C39,22.5,37.7,21.4,37.7,19.4z
			 M44.2,36.2v-7.9c2.2,1.1,3.5,2.1,3.5,4.1C47.7,34,46.4,35.7,44.2,36.2z"/>
		<g class="st2">
			<path d="M48.8,60.5c-1,0-2-0.1-3-0.2c-0.8-0.1-1.4-0.8-1.3-1.6c0.1-0.8,0.8-1.4,1.6-1.3c0.9,0.1,1.8,0.1,2.7,0.1
				c14,0,25.5-11.4,25.5-25.5c0-1-0.1-2-0.2-2.9c-0.1-0.8,0.5-1.6,1.3-1.7c0.8-0.1,1.6,0.5,1.7,1.3c0.1,1.1,0.2,2.2,0.2,3.3
				C77.3,47.7,64.5,60.5,48.8,60.5z"/>
		</g>
		<g class="st2">
			<path d="M55,66.6c-1,0-2-0.1-3-0.2c-0.8-0.1-1.4-0.8-1.3-1.7c0.1-0.9,0.8-1.4,1.7-1.3s1.8,0.1,2.7,0.1c14,0,25.5-11.4,25.5-25.5
				c0-1-0.1-1.9-0.2-2.9c-0.1-0.8,0.5-1.6,1.3-1.7c0.8-0.1,1.6,0.5,1.7,1.3c0.1,1.1,0.2,2.2,0.2,3.3C83.4,53.9,70.7,66.6,55,66.6z"
				/>
		</g>
		<path class="st2" d="M42.8,47.9c-0.1-0.8,0.6-1.5,1.4-1.6l0,0c0.8-0.1,1.5,0.6,1.6,1.4l0,0c0,0.8-0.6,1.5-1.4,1.6l0,0h-0.1l0,0
			C43.5,49.3,42.8,48.7,42.8,47.9z M38,48.9c-0.8-0.2-1.3-1-1.2-1.8l0,0c0.2-0.8,1-1.3,1.8-1.2l0,0c0.8,0.2,1.3,1,1.2,1.8l0,0
			c-0.1,0.7-0.8,1.2-1.5,1.2l0,0C38.2,49,38.1,48.9,38,48.9z M48.7,47.1c-0.3-0.8,0.1-1.6,0.9-1.9l0,0c0.8-0.3,1.6,0.1,1.9,0.9l0,0
			c0.3,0.8-0.1,1.6-0.9,1.9l0,0c-0.2,0.1-0.3,0.1-0.5,0.1l0,0C49.5,48.1,48.9,47.7,48.7,47.1z M32,46.8c-0.7-0.4-1-1.3-0.6-2l0,0
			c0.4-0.7,1.3-1,2-0.6l0,0c0.7,0.4,1,1.3,0.6,2l0,0c-0.3,0.5-0.8,0.8-1.3,0.8l0,0C32.4,47,32.2,46.9,32,46.8z M54.2,44.7
			c-0.5-0.7-0.3-1.6,0.4-2.1l0,0c0.7-0.5,1.6-0.3,2.1,0.3l0,0c0.5,0.7,0.3,1.6-0.4,2.1l0,0l0,0l0,0c-0.3,0.2-0.6,0.3-0.9,0.3l0,0
			C55,45.3,54.5,45.1,54.2,44.7z M26.7,43.1c-0.6-0.6-0.6-1.5-0.1-2.1l0,0c0.6-0.6,1.5-0.6,2.1-0.1l0,0c0.6,0.6,0.6,1.5,0.1,2.1l0,0
			c-0.3,0.3-0.7,0.5-1.1,0.5l0,0C27.4,43.5,27,43.4,26.7,43.1z M58.9,40.9c-0.7-0.5-0.8-1.5-0.2-2.1l0,0c0.5-0.6,1.5-0.8,2.1-0.2
			l0,0c0.6,0.5,0.7,1.5,0.2,2.1l0,0l0,0l0,0c-0.3,0.4-0.7,0.6-1.2,0.6l0,0C59.5,41.2,59.1,41.1,58.9,40.9z M22.7,38.2
			c-0.4-0.7-0.2-1.6,0.5-2.1l0,0c0.7-0.4,1.6-0.2,2.1,0.5l0,0c0.4,0.7,0.2,1.6-0.5,2.1l0,0c-0.2,0.1-0.5,0.2-0.8,0.2l0,0
			C23.4,38.9,22.9,38.7,22.7,38.2z M62.3,36c-0.8-0.3-1.1-1.2-0.8-2l0,0c0.3-0.8,1.2-1.1,2-0.8l0,0c0.8,0.3,1.1,1.2,0.8,2l0,0l0,0
			l0,0c-0.2,0.6-0.8,0.9-1.4,0.9l0,0C62.7,36.1,62.5,36.1,62.3,36z M20.1,32.3c-0.2-0.8,0.2-1.6,1-1.8l0,0c0.8-0.2,1.6,0.2,1.9,1
			l0,0c0.2,0.8-0.2,1.6-1,1.9l0,0c-0.1,0-0.3,0.1-0.4,0.1l0,0C20.9,33.4,20.3,33,20.1,32.3z M64.3,30.3c-0.8-0.1-1.4-0.9-1.3-1.7
			l0,0c0.1-0.8,0.9-1.4,1.7-1.3l0,0c0.8,0.1,1.4,0.9,1.3,1.7l0,0c-0.1,0.8-0.8,1.3-1.5,1.3l0,0C64.4,30.4,64.4,30.3,64.3,30.3z
			 M19.2,26L19.2,26L19.2,26C19.2,25.9,19.2,25.9,19.2,26L19.2,26c0-0.9,0.7-1.6,1.5-1.6l0,0c0.8,0,1.5,0.7,1.5,1.5l0,0l0,0l0,0l0,0
			l0,0c0,0.8-0.7,1.5-1.5,1.5l0,0l0,0l0,0C19.9,27.5,19.2,26.8,19.2,26z M19.2,26L19.2,26L19.2,26L19.2,26L19.2,26L19.2,26z
			 M63,23.1L63,23.1c-0.1-0.8,0.5-1.6,1.3-1.7l0,0c0.8-0.1,1.6,0.5,1.7,1.3l0,0c0.1,0.8-0.5,1.6-1.3,1.7l0,0c-0.1,0-0.1,0-0.2,0l0,0
			C63.7,24.4,63.1,23.8,63,23.1z M21.1,21.4c-0.8-0.2-1.3-1-1-1.9l0,0c0.2-0.8,1.1-1.3,1.9-1l0,0c0.8,0.2,1.3,1.1,1,1.9l0,0
			c-0.2,0.7-0.8,1.1-1.4,1.1l0,0C21.4,21.5,21.2,21.4,21.1,21.4z M61.5,17.7L61.5,17.7c-0.3-0.8,0-1.6,0.8-2l0,0
			c0.8-0.3,1.6,0,2,0.8l0,0l0,0l0,0c0.3,0.8,0,1.6-0.8,2l0,0c-0.2,0.1-0.4,0.1-0.6,0.1l0,0C62.3,18.6,61.7,18.3,61.5,17.7z
			 M23.1,15.7c-0.7-0.4-0.9-1.3-0.5-2.1l0,0c0.4-0.7,1.4-0.9,2.1-0.5l0,0c0.7,0.4,0.9,1.4,0.5,2.1l0,0c-0.3,0.5-0.8,0.7-1.3,0.7l0,0
			C23.6,16,23.4,15.9,23.1,15.7z M58.6,12.9L58.6,12.9c-0.5-0.6-0.4-1.6,0.2-2.1l0,0c0.7-0.5,1.6-0.4,2.1,0.2l0,0
			c0.5,0.6,0.4,1.6-0.2,2.1l0,0c-0.3,0.2-0.6,0.3-1,0.3l0,0C59.3,13.5,58.9,13.3,58.6,12.9z M26.6,10.8c-0.6-0.6-0.5-1.5,0.1-2.1
			l0,0c0.6-0.6,1.6-0.5,2.1,0.1l0,0c0.6,0.6,0.5,1.6-0.1,2.1l0,0c-0.3,0.3-0.7,0.4-1,0.4l0,0C27.3,11.3,26.9,11.2,26.6,10.8z
			 M54.5,9.1c-0.7-0.5-0.8-1.4-0.4-2.1l0,0c0.5-0.7,1.4-0.8,2.1-0.4l0,0C56.9,7.1,57,8,56.6,8.7l0,0c-0.3,0.4-0.8,0.6-1.2,0.6l0,0
			C55.1,9.4,54.8,9.3,54.5,9.1z M31.2,7.1c-0.4-0.7-0.1-1.6,0.6-2l0,0c0.7-0.4,1.6-0.1,2,0.6l0,0c0.4,0.7,0.1,1.6-0.6,2l0,0
			c-0.2,0.1-0.5,0.2-0.7,0.2l0,0C32,7.9,31.5,7.6,31.2,7.1z M49.5,6.6L49.5,6.6c-0.8-0.3-1.2-1.1-0.9-1.9l0,0
			c0.3-0.8,1.1-1.2,1.9-0.9l0,0c0.8,0.3,1.2,1.1,0.9,1.9l0,0c-0.2,0.6-0.8,1-1.4,1l0,0C49.9,6.7,49.7,6.6,49.5,6.6z M36.7,4.7
			c-0.2-0.8,0.3-1.6,1.2-1.8l0,0c0.8-0.2,1.6,0.4,1.8,1.2l0,0c0.2,0.8-0.4,1.6-1.2,1.8l0,0c-0.1,0-0.2,0-0.3,0l0,0
			C37.5,5.9,36.9,5.4,36.7,4.7z M44.1,5.4L44.1,5.4c-0.8-0.1-1.5-0.8-1.4-1.6l0,0c0.1-0.8,0.8-1.4,1.6-1.4l0,0
			c0.8,0.1,1.5,0.8,1.4,1.6l0,0C45.6,4.8,45,5.4,44.1,5.4L44.1,5.4C44.1,5.4,44.1,5.4,44.1,5.4z"/>
		<path class="st2" d="M42.7,54.4c-15.7,0-28.5-12.8-28.5-28.5S27-2.6,42.7-2.6s28.5,12.8,28.5,28.5S58.4,54.4,42.7,54.4z M42.7,0.4
			c-14.1,0-25.5,11.4-25.5,25.5s11.4,25.5,25.5,25.5S68.2,40,68.2,25.9S56.8,0.4,42.7,0.4z"/>
	</g>
	<g>
		<path class="st2" d="M55.7,37.4c0-4.2-3.4-6-6.5-7.4v-9.4c2,0.4,3.3,1.4,3.7,2c0.5,0.7,1.4,0.8,2.1,0.4c0.7-0.5,0.8-1.4,0.4-2.1
			c-1-1.4-3.1-2.9-6.2-3.3v-3.7c0-0.8-0.7-1.5-1.5-1.5s-1.5,0.7-1.5,1.5v3.6c-3.7,0.6-6.5,3.4-6.5,6.9c0,4.3,3.4,6.2,6.5,7.5v9.3
			c-2.1-0.4-3.3-1.4-3.8-2c-0.5-0.7-1.4-0.9-2.1-0.4c-0.7,0.5-0.9,1.4-0.4,2.1c0.9,1.4,3.1,3,6.2,3.4v3.6c0,0.8,0.7,1.5,1.5,1.5
			s1.5-0.7,1.5-1.5v-3.6C52.9,43.7,55.7,40.9,55.7,37.4z M42.7,24.4c0-1.6,1.3-3.3,3.5-3.8v8C44,27.5,42.7,26.4,42.7,24.4z
			 M49.2,41.2v-7.9c2.2,1.1,3.5,2.1,3.5,4.1C52.7,39,51.4,40.7,49.2,41.2z"/>
		<path class="st2" d="M86.2,54.1h-77c-0.8,0-1.5-0.7-1.5-1.5V9.1c0-0.8,0.7-1.5,1.5-1.5h77c0.8,0,1.5,0.7,1.5,1.5v43.5
			C87.7,53.5,87,54.1,86.2,54.1z M10.7,51.1h74V10.7h-74V51.1z"/>
		<g class="st2">
			<path d="M27.2,30.9c0-6.1,2.6-11.5,6.8-15.2H17.2c-0.8,0-1.5,0.7-1.5,1.5v27.5c0,0.8,0.7,1.5,1.5,1.5H34
				C29.8,42.4,27.2,37,27.2,30.9z"/>
			<path d="M78.2,15.7H61.4c4.2,3.8,6.8,9.2,6.8,15.2s-2.6,11.5-6.8,15.2h16.8c0.8,0,1.5-0.7,1.5-1.5V17.1
				C79.7,16.3,79,15.7,78.2,15.7z"/>
		</g>
	</g>
	<g class="st2">
		<path d="M50.7,32.4c0-4.2-3.4-6-6.5-7.4v-9.4c2,0.4,3.3,1.4,3.7,2c0.5,0.7,1.4,0.8,2.1,0.4c0.7-0.5,0.8-1.4,0.4-2.1
			c-1-1.4-3.1-2.9-6.2-3.3V8.9c0-0.8-0.7-1.5-1.5-1.5s-1.5,0.7-1.5,1.5v3.6c-3.7,0.6-6.5,3.4-6.5,6.9c0,4.3,3.4,6.2,6.5,7.5v9.3
			c-2.1-0.4-3.3-1.4-3.8-2c-0.5-0.7-1.4-0.9-2.1-0.4c-0.7,0.5-0.9,1.4-0.4,2.1c0.9,1.4,3.1,3,6.2,3.4v3.6c0,0.8,0.7,1.5,1.5,1.5
			s1.5-0.7,1.5-1.5v-3.6C47.9,38.7,50.7,35.9,50.7,32.4z M37.7,19.4c0-1.6,1.3-3.3,3.5-3.8v8C39,22.5,37.7,21.4,37.7,19.4z
			 M44.2,36.2v-7.9c2.2,1.1,3.5,2.1,3.5,4.1C47.7,34,46.4,35.7,44.2,36.2z"/>
		<path d="M91.2,59.1h-77c-0.8,0-1.5-0.7-1.5-1.5s0.7-1.5,1.5-1.5h75.5v-42c0-0.8,0.7-1.5,1.5-1.5s1.5,0.7,1.5,1.5v43.5
			C92.7,58.5,92,59.1,91.2,59.1z"/>
		<path d="M86.2,54.1h-77c-0.8,0-1.5-0.7-1.5-1.5s0.7-1.5,1.5-1.5h75.5v-42c0-0.8,0.7-1.5,1.5-1.5s1.5,0.7,1.5,1.5v43.5
			C87.7,53.5,87,54.1,86.2,54.1z"/>
		<path d="M81.2,49.1h-77c-0.8,0-1.5-0.7-1.5-1.5V4.1c0-0.8,0.7-1.5,1.5-1.5h77c0.8,0,1.5,0.7,1.5,1.5v43.5
			C82.7,48.5,82,49.1,81.2,49.1z M5.7,46.1h74V5.7h-74V46.1z"/>
		<g>
			<path d="M22.2,25.9c0-6.1,2.6-11.5,6.8-15.2H12.2c-0.8,0-1.5,0.7-1.5,1.5v27.5c0,0.8,0.7,1.5,1.5,1.5H29
				C24.8,37.4,22.2,32,22.2,25.9z"/>
			<path d="M73.2,10.7H56.4c4.2,3.8,6.8,9.2,6.8,15.2s-2.6,11.5-6.8,15.2h16.8c0.8,0,1.5-0.7,1.5-1.5V12.1
				C74.7,11.3,74,10.7,73.2,10.7z"/>
		</g>
	</g>
	<g>
		<path class="st2" d="M55.7,37.4c0-4.2-3.4-6-6.5-7.4v-9.4c2,0.4,3.3,1.4,3.7,2c0.5,0.7,1.4,0.8,2.1,0.4c0.7-0.5,0.8-1.4,0.4-2.1
			c-1-1.4-3.1-2.9-6.2-3.3v-3.7c0-0.8-0.7-1.5-1.5-1.5s-1.5,0.7-1.5,1.5v3.6c-3.7,0.6-6.5,3.4-6.5,6.9c0,4.3,3.4,6.2,6.5,7.5v9.3
			c-2.1-0.4-3.3-1.4-3.8-2c-0.5-0.7-1.4-0.9-2.1-0.4c-0.7,0.5-0.9,1.4-0.4,2.1c0.9,1.4,3.1,3,6.2,3.4v3.6c0,0.8,0.7,1.5,1.5,1.5
			s1.5-0.7,1.5-1.5v-3.6C52.9,43.7,55.7,40.9,55.7,37.4z M42.7,24.4c0-1.6,1.3-3.3,3.5-3.8v8C44,27.5,42.7,26.4,42.7,24.4z
			 M49.2,41.2v-7.9c2.2,1.1,3.5,2.1,3.5,4.1C52.7,39,51.4,40.7,49.2,41.2z"/>
		<path class="st2" d="M51.8,3.3c-0.3,0-0.6-0.1-0.9-0.3c-0.7-0.5-0.8-1.4-0.3-2.1l2.8-3.7l-5.5,0.6c-0.1,0-0.2,0-0.3,0l-5.5-0.6
			l2.8,3.7c0.5,0.7,0.4,1.6-0.3,2.1S43,3.4,42.5,2.7l-4.9-6.5c-0.4-0.5-0.4-1.1-0.1-1.6c0.3-0.5,0.9-0.8,1.5-0.8l8.8,1l8.8-1
			c0.6-0.1,1.2,0.2,1.5,0.8s0.3,1.2-0.1,1.6l-4.9,6.5C52.7,3.1,52.2,3.3,51.8,3.3z"/>
		<path class="st2" d="M47.7,54.9C37.5,54.9,26,54.9,26,40c0-13.9,9.7-35.1,21.7-35.1S69.4,26.1,69.4,40
			C69.4,54.9,57.9,54.9,47.7,54.9z M47.7,7.9c-4.4,0-9.1,4.1-12.9,11.1c-3.5,6.5-5.7,14.7-5.7,20.9c-0.1,11.4,7,12,18.6,12
			S66.4,51.3,66.4,40c0-6.3-2.2-14.5-5.7-20.9C56.8,12,52.1,7.9,47.7,7.9z"/>
	</g>
	<g>
		<path class="st2" d="M55.7,37.4c0-4.2-3.4-6-6.5-7.4v-9.4c2,0.4,3.3,1.4,3.7,2c0.5,0.7,1.4,0.8,2.1,0.4c0.7-0.5,0.8-1.4,0.4-2.1
			c-1-1.4-3.1-2.9-6.2-3.3v-3.7c0-0.8-0.7-1.5-1.5-1.5s-1.5,0.7-1.5,1.5v3.6c-3.7,0.6-6.5,3.4-6.5,6.9c0,4.3,3.4,6.2,6.5,7.5v9.3
			c-2.1-0.4-3.3-1.4-3.8-2c-0.5-0.7-1.4-0.9-2.1-0.4c-0.7,0.5-0.9,1.4-0.4,2.1c0.9,1.4,3.1,3,6.2,3.4v3.6c0,0.8,0.7,1.5,1.5,1.5
			s1.5-0.7,1.5-1.5v-3.6C52.9,43.7,55.7,40.9,55.7,37.4z M42.7,24.4c0-1.6,1.3-3.3,3.5-3.8v8C44,27.5,42.7,26.4,42.7,24.4z
			 M49.2,41.2v-7.9c2.2,1.1,3.5,2.1,3.5,4.1C52.7,39,51.4,40.7,49.2,41.2z"/>
		<path class="st2" d="M27.7,51.4c-0.8,0-1.5-0.7-1.5-1.5v-38c0-0.8,0.7-1.5,1.5-1.5s1.5,0.7,1.5,1.5v38
			C29.2,50.7,28.5,51.4,27.7,51.4z"/>
		<path class="st2" d="M17.7,51.4c-0.8,0-1.5-0.7-1.5-1.5v-38c0-0.8,0.7-1.5,1.5-1.5s1.5,0.7,1.5,1.5v38
			C19.2,50.7,18.5,51.4,17.7,51.4z"/>
		<path class="st2" d="M67.7,51.4c-0.8,0-1.5-0.7-1.5-1.5v-38c0-0.8,0.7-1.5,1.5-1.5s1.5,0.7,1.5,1.5v38
			C69.2,50.7,68.5,51.4,67.7,51.4z"/>
		<path class="st2" d="M77.7,51.4c-0.8,0-1.5-0.7-1.5-1.5v-38c0-0.8,0.7-1.5,1.5-1.5s1.5,0.7,1.5,1.5v38
			C79.2,50.7,78.5,51.4,77.7,51.4z"/>
		<path class="st2" d="M81.2,8.4L81.2,8.4h-67c-0.7,0-1.3-0.5-1.4-1.1c-0.2-0.7,0.1-1.3,0.7-1.7l33.5-20c0.5-0.3,1.1-0.3,1.5,0
			L81.9,5.5c0.5,0.2,0.9,0.8,0.9,1.4C82.7,7.7,82,8.4,81.2,8.4z M19.6,5.4h56.1l-28-16.8L19.6,5.4z"/>
		<path class="st2" d="M81.2,56.4h-67c-0.8,0-1.5-0.7-1.5-1.5s0.7-1.5,1.5-1.5h67c0.8,0,1.5,0.7,1.5,1.5S82,56.4,81.2,56.4z"/>
		<path class="st2" d="M86.2,61.4h-77c-0.8,0-1.5-0.7-1.5-1.5s0.7-1.5,1.5-1.5h77c0.8,0,1.5,0.7,1.5,1.5S87,61.4,86.2,61.4z"/>
		<path class="st2" d="M91.2,66.4h-87c-0.8,0-1.5-0.7-1.5-1.5s0.7-1.5,1.5-1.5h87c0.8,0,1.5,0.7,1.5,1.5S92,66.4,91.2,66.4z"/>
	</g>
	<g>
		<line class="st1" x1="50.2" y1="12.9" x2="50.2" y2="46.9"/>
		<line class="st1" x1="45.2" y1="12.9" x2="45.2" y2="46.9"/>
		<path class="st1" d="M41.2,39.1c0.7,1,2.9,2.8,6.5,2.8c3.8,0,6.5-2.6,6.5-5.5c0-7.2-13-5.6-13-13c0-2.9,2.7-5.5,6.5-5.5
			c3.6,0,5.7,1.7,6.5,2.8"/>
	</g>
	<g>
		<line class="st1" x1="47.7" y1="12.9" x2="47.7" y2="17.9"/>
		<line class="st1" x1="47.7" y1="41.9" x2="47.7" y2="46.9"/>
		<path class="st1" d="M41.2,39.1c0.7,1,2.9,2.8,6.5,2.8c3.8,0,6.5-2.6,6.5-5.5c0-7.2-13-5.6-13-13c0-2.9,2.7-5.5,6.5-5.5
			c3.6,0,5.7,1.7,6.5,2.8"/>
	</g>
	<g>
		<path class="st1" d="M55.2,38.6c-1,2.5-3.7,4.3-6.8,4.3l0,0c-4,0-7.2-2.9-7.2-6.5v-11c0-3.6,3.2-6.5,7.2-6.5l0,0
			c3.1,0,5.8,1.8,6.8,4.4"/>
		<line class="st1" x1="38.2" y1="28.4" x2="52.2" y2="28.4"/>
		<line class="st1" x1="38.2" y1="33.4" x2="52.2" y2="33.4"/>
	</g>
	<g>
		<path class="st2" d="M55.7,37.2c-0.8-0.3-1.6,0.1-1.9,0.8c-0.8,2-3,3.4-5.4,3.4c-3.1,0-5.7-2.3-5.7-5v-1.5h9.5
			c0.8,0,1.5-0.7,1.5-1.5s-0.7-1.5-1.5-1.5h-9.5v-2h9.5c0.8,0,1.5-0.7,1.5-1.5s-0.7-1.5-1.5-1.5h-9.5v-1.5c0-2.8,2.6-5,5.7-5
			c2.4,0,4.6,1.4,5.4,3.4c0.3,0.8,1.2,1.1,1.9,0.8c0.8-0.3,1.2-1.2,0.8-1.9c-1.2-3.2-4.5-5.3-8.2-5.3c-4.8,0-8.7,3.6-8.7,8v1.5h-1.5
			c-0.8,0-1.5,0.7-1.5,1.5s0.7,1.5,1.5,1.5h1.6v2h-1.5c-0.8,0-1.5,0.7-1.5,1.5s0.7,1.5,1.5,1.5h1.5v1.5c0,4.4,3.9,8,8.7,8
			c3.6,0,6.9-2.1,8.2-5.3C56.9,38.4,56.5,37.5,55.7,37.2z"/>
		<path class="st2" d="M47.8,52.9c0-0.8,0.6-1.5,1.4-1.6l0,0c0.8-0.1,1.5,0.6,1.6,1.4l0,0c0.1,0.8-0.6,1.5-1.4,1.6l0,0h-0.1l0,0
			C48.5,54.3,47.8,53.7,47.8,52.9z M43,53.9c-0.8-0.2-1.3-1-1.2-1.8l0,0c0.2-0.8,1-1.3,1.8-1.2l0,0c0.8,0.2,1.3,1,1.2,1.8l0,0
			c-0.1,0.7-0.8,1.2-1.5,1.2l0,0C43.2,54,43.1,53.9,43,53.9z M53.7,52.1c-0.3-0.8,0.1-1.6,0.9-1.9l0,0c0.8-0.3,1.6,0.1,1.9,0.9l0,0
			c0.3,0.8-0.1,1.6-0.9,1.9l0,0c-0.2,0.1-0.3,0.1-0.5,0.1l0,0C54.5,53.1,53.9,52.7,53.7,52.1z M37,51.8c-0.7-0.4-1-1.3-0.6-2l0,0
			c0.4-0.7,1.3-1,2-0.6l0,0c0.7,0.4,1,1.3,0.6,2l0,0c-0.3,0.5-0.8,0.8-1.3,0.8l0,0C37.4,52,37.2,51.9,37,51.8z M59.2,49.7
			c-0.5-0.7-0.3-1.6,0.3-2.1l0,0c0.7-0.5,1.6-0.3,2.1,0.3l0,0c0.5,0.7,0.3,1.6-0.4,2.1l0,0l0,0l0,0c-0.3,0.2-0.6,0.3-0.9,0.3l0,0
			C60,50.3,59.5,50.1,59.2,49.7z M31.7,48.1c-0.6-0.6-0.6-1.5-0.1-2.1l0,0c0.6-0.6,1.5-0.6,2.1-0.1l0,0c0.6,0.6,0.6,1.5,0.1,2.1l0,0
			c-0.3,0.3-0.7,0.5-1.1,0.5l0,0C32.4,48.5,32,48.4,31.7,48.1z M63.9,45.9c-0.7-0.5-0.8-1.5-0.2-2.1l0,0c0.5-0.6,1.5-0.8,2.1-0.2
			l0,0c0.6,0.5,0.7,1.5,0.2,2.1l0,0l0,0l0,0c-0.3,0.4-0.7,0.5-1.2,0.5l0,0C64.5,46.2,64.1,46.1,63.9,45.9z M27.7,43.2
			c-0.4-0.7-0.2-1.6,0.5-2.1l0,0c0.7-0.4,1.6-0.2,2.1,0.5l0,0c0.4,0.7,0.2,1.6-0.5,2.1l0,0c-0.2,0.1-0.5,0.2-0.8,0.2l0,0
			C28.4,43.9,27.9,43.7,27.7,43.2z M67.3,41c-0.8-0.3-1.1-1.2-0.8-2l0,0c0.3-0.8,1.2-1.1,2-0.8l0,0c0.8,0.3,1.1,1.2,0.8,2l0,0l0,0
			l0,0c-0.2,0.6-0.8,0.9-1.4,0.9l0,0C67.7,41.1,67.5,41.1,67.3,41z M25.1,37.3c-0.2-0.8,0.2-1.6,1-1.8l0,0c0.8-0.2,1.6,0.2,1.9,1
			l0,0c0.2,0.8-0.2,1.6-1,1.9l0,0c-0.1,0-0.3,0.1-0.4,0.1l0,0C25.9,38.4,25.3,38,25.1,37.3z M69.3,35.3c-0.8-0.1-1.4-0.9-1.3-1.7
			l0,0c0.1-0.8,0.9-1.4,1.7-1.3l0,0c0.8,0.1,1.4,0.9,1.3,1.7l0,0c-0.1,0.8-0.8,1.3-1.5,1.3l0,0C69.4,35.4,69.4,35.3,69.3,35.3z
			 M24.2,31L24.2,31L24.2,31C24.2,30.9,24.2,30.9,24.2,31L24.2,31L24.2,31L24.2,31c0-0.9,0.7-1.6,1.5-1.6l0,0c0.8,0,1.5,0.7,1.5,1.5
			l0,0l0,0l0,0l0,0l0,0c0,0.8-0.7,1.5-1.5,1.5l0,0C24.9,32.5,24.2,31.8,24.2,31z M24.2,31L24.2,31L24.2,31L24.2,31L24.2,31L24.2,31z
			 M68,28.1c-0.1-0.8,0.5-1.6,1.3-1.7l0,0c0.8-0.1,1.6,0.5,1.7,1.3l0,0l0,0l0,0c0.1,0.8-0.5,1.6-1.3,1.7l0,0c-0.1,0-0.1,0-0.2,0l0,0
			C68.7,29.4,68.1,28.8,68,28.1z M26.1,26.4c-0.8-0.2-1.3-1-1-1.9l0,0l0,0l0,0c0.2-0.8,1-1.3,1.8-1l0,0c0.8,0.2,1.3,1.1,1,1.9l0,0
			c-0.2,0.7-0.8,1.1-1.4,1.1l0,0C26.4,26.5,26.2,26.4,26.1,26.4z M66.5,22.7L66.5,22.7c-0.3-0.8,0-1.6,0.8-2l0,0
			c0.8-0.3,1.7,0,2,0.8l0,0c0.3,0.8,0,1.6-0.8,2l0,0c-0.2,0.1-0.4,0.1-0.6,0.1l0,0C67.3,23.6,66.7,23.3,66.5,22.7z M28.1,20.7
			c-0.7-0.4-0.9-1.3-0.5-2.1l0,0l0,0l0,0c0.4-0.7,1.4-0.9,2.1-0.5l0,0c0.7,0.4,0.9,1.4,0.5,2.1l0,0c-0.3,0.5-0.8,0.7-1.3,0.7l0,0
			C28.6,21,28.4,20.9,28.1,20.7z M63.6,17.9c-0.5-0.6-0.4-1.6,0.2-2.1l0,0c0.6-0.5,1.6-0.4,2.1,0.2l0,0c0.5,0.6,0.4,1.6-0.2,2.1l0,0
			c-0.3,0.2-0.6,0.3-1,0.3l0,0C64.3,18.5,63.9,18.3,63.6,17.9z M31.6,15.8c-0.6-0.6-0.5-1.5,0.1-2.1l0,0c0.6-0.6,1.6-0.5,2.1,0.1
			l0,0c0.6,0.6,0.5,1.6-0.1,2.1l0,0c-0.3,0.3-0.7,0.4-1,0.4l0,0C32.3,16.3,31.9,16.2,31.6,15.8z M59.5,14.1
			c-0.7-0.5-0.8-1.4-0.4-2.1l0,0c0.5-0.7,1.4-0.8,2.1-0.4l0,0c0.7,0.5,0.8,1.4,0.4,2.1l0,0c-0.3,0.4-0.8,0.6-1.2,0.6l0,0
			C60.1,14.4,59.8,14.3,59.5,14.1z M36.2,12.1c-0.4-0.7-0.1-1.6,0.6-2l0,0c0.7-0.4,1.6-0.1,2,0.6l0,0c0.4,0.7,0.1,1.6-0.6,2l0,0
			c-0.2,0.1-0.5,0.2-0.7,0.2l0,0C37,12.9,36.5,12.6,36.2,12.1z M54.5,11.6c-0.8-0.3-1.2-1.1-0.9-1.9l0,0c0.3-0.8,1.1-1.2,1.9-0.9
			l0,0c0.8,0.3,1.2,1.1,0.9,1.9l0,0c-0.2,0.6-0.8,1-1.4,1l0,0C54.9,11.7,54.7,11.6,54.5,11.6z M41.7,9.7c-0.2-0.8,0.3-1.6,1.2-1.8
			l0,0c0.8-0.2,1.6,0.4,1.8,1.2l0,0c0.2,0.8-0.4,1.6-1.2,1.8l0,0c-0.1,0-0.2,0-0.3,0l0,0C42.5,10.9,41.9,10.4,41.7,9.7z M49.1,10.4
			L49.1,10.4c-0.8-0.1-1.5-0.8-1.4-1.6l0,0c0-0.8,0.8-1.4,1.6-1.4l0,0l0,0l0,0c0.8,0,1.5,0.8,1.4,1.6l0,0
			C50.6,9.8,50,10.4,49.1,10.4L49.1,10.4L49.1,10.4z"/>
		<path class="st2" d="M47.7,59.4c-15.7,0-28.5-12.8-28.5-28.5S32,2.4,47.7,2.4s28.5,12.8,28.5,28.5S63.4,59.4,47.7,59.4z M47.7,5.4
			c-14.1,0-25.5,11.4-25.5,25.5s11.4,25.5,25.5,25.5S73.2,45,73.2,30.9S61.8,5.4,47.7,5.4z"/>
	</g>
	<g>
		<path class="st2" d="M50.7,32.2c-0.8-0.3-1.6,0.1-1.9,0.8c-0.8,2-3,3.4-5.4,3.4c-3.1,0-5.7-2.3-5.7-5v-1.5h9.5
			c0.8,0,1.5-0.7,1.5-1.5s-0.7-1.5-1.5-1.5h-9.5v-2h9.5c0.8,0,1.5-0.7,1.5-1.5s-0.7-1.5-1.5-1.5h-9.5v-1.5c0-2.8,2.6-5,5.7-5
			c2.4,0,4.6,1.4,5.4,3.4c0.3,0.8,1.2,1.1,1.9,0.8c0.8-0.3,1.2-1.2,0.8-1.9c-1.2-3.2-4.5-5.3-8.2-5.3c-4.8,0-8.7,3.6-8.7,8v1.5h-1.5
			c-0.8,0-1.5,0.7-1.5,1.5s0.7,1.5,1.5,1.5h1.6v2h-1.5c-0.8,0-1.5,0.7-1.5,1.5s0.7,1.5,1.5,1.5h1.5v1.5c0,4.4,3.9,8,8.7,8
			c3.6,0,6.9-2.1,8.2-5.3C51.9,33.4,51.5,32.5,50.7,32.2z"/>
		<g class="st2">
			<path d="M48.8,60.5c-1,0-2-0.1-3-0.2c-0.8-0.1-1.4-0.8-1.3-1.6c0.1-0.8,0.8-1.4,1.6-1.3c0.9,0.1,1.8,0.1,2.7,0.1
				c14,0,25.5-11.4,25.5-25.5c0-1-0.1-2-0.2-2.9c-0.1-0.8,0.5-1.6,1.3-1.7c0.8-0.1,1.6,0.5,1.7,1.3c0.1,1.1,0.2,2.2,0.2,3.3
				C77.3,47.7,64.5,60.5,48.8,60.5z"/>
		</g>
		<g class="st2">
			<path d="M55,66.6c-1,0-2-0.1-3-0.2c-0.8-0.1-1.4-0.8-1.3-1.7c0.1-0.9,0.8-1.4,1.7-1.3s1.8,0.1,2.7,0.1c14,0,25.5-11.4,25.5-25.5
				c0-1-0.1-1.9-0.2-2.9c-0.1-0.8,0.5-1.6,1.3-1.7c0.8-0.1,1.6,0.5,1.7,1.3c0.1,1.1,0.2,2.2,0.2,3.3C83.4,53.9,70.7,66.6,55,66.6z"
				/>
		</g>
		<path class="st2" d="M42.8,47.9c-0.1-0.8,0.6-1.5,1.4-1.6l0,0c0.8-0.1,1.5,0.6,1.6,1.4l0,0c0,0.8-0.6,1.5-1.4,1.6l0,0h-0.1l0,0
			C43.5,49.3,42.8,48.7,42.8,47.9z M38,48.9c-0.8-0.2-1.3-1-1.2-1.8l0,0c0.2-0.8,1-1.3,1.8-1.2l0,0c0.8,0.2,1.3,1,1.2,1.8l0,0
			c-0.1,0.7-0.8,1.2-1.5,1.2l0,0C38.2,49,38.1,48.9,38,48.9z M48.7,47.1c-0.3-0.8,0.1-1.6,0.9-1.9l0,0c0.8-0.3,1.6,0.1,1.9,0.9l0,0
			c0.3,0.8-0.1,1.6-0.9,1.9l0,0c-0.2,0.1-0.3,0.1-0.5,0.1l0,0C49.5,48.1,48.9,47.7,48.7,47.1z M32,46.8c-0.7-0.4-1-1.3-0.6-2l0,0
			c0.4-0.7,1.3-1,2-0.6l0,0c0.7,0.4,1,1.3,0.6,2l0,0c-0.3,0.5-0.8,0.8-1.3,0.8l0,0C32.4,47,32.2,46.9,32,46.8z M54.2,44.7
			c-0.5-0.7-0.3-1.6,0.4-2.1l0,0c0.7-0.5,1.6-0.3,2.1,0.3l0,0c0.5,0.7,0.3,1.6-0.4,2.1l0,0l0,0l0,0c-0.3,0.2-0.6,0.3-0.9,0.3l0,0
			C55,45.3,54.5,45.1,54.2,44.7z M26.7,43.1c-0.6-0.6-0.6-1.5-0.1-2.1l0,0c0.6-0.6,1.5-0.6,2.1-0.1l0,0c0.6,0.6,0.6,1.5,0.1,2.1l0,0
			c-0.3,0.3-0.7,0.5-1.1,0.5l0,0C27.4,43.5,27,43.4,26.7,43.1z M58.9,40.9c-0.7-0.5-0.8-1.5-0.2-2.1l0,0c0.5-0.6,1.5-0.8,2.1-0.2
			l0,0c0.6,0.5,0.7,1.5,0.2,2.1l0,0l0,0l0,0c-0.3,0.4-0.7,0.6-1.2,0.6l0,0C59.5,41.2,59.1,41.1,58.9,40.9z M22.7,38.2
			c-0.4-0.7-0.2-1.6,0.5-2.1l0,0c0.7-0.4,1.6-0.2,2.1,0.5l0,0c0.4,0.7,0.2,1.6-0.5,2.1l0,0c-0.2,0.1-0.5,0.2-0.8,0.2l0,0
			C23.4,38.9,22.9,38.7,22.7,38.2z M62.3,36c-0.8-0.3-1.1-1.2-0.8-2l0,0c0.3-0.8,1.2-1.1,2-0.8l0,0c0.8,0.3,1.1,1.2,0.8,2l0,0l0,0
			l0,0c-0.2,0.6-0.8,0.9-1.4,0.9l0,0C62.7,36.1,62.5,36.1,62.3,36z M20.1,32.3c-0.2-0.8,0.2-1.6,1-1.8l0,0c0.8-0.2,1.6,0.2,1.9,1
			l0,0c0.2,0.8-0.2,1.6-1,1.9l0,0c-0.1,0-0.3,0.1-0.4,0.1l0,0C20.9,33.4,20.3,33,20.1,32.3z M64.3,30.3c-0.8-0.1-1.4-0.9-1.3-1.7
			l0,0c0.1-0.8,0.9-1.4,1.7-1.3l0,0c0.8,0.1,1.4,0.9,1.3,1.7l0,0c-0.1,0.8-0.8,1.3-1.5,1.3l0,0C64.4,30.4,64.4,30.3,64.3,30.3z
			 M19.2,26L19.2,26L19.2,26C19.2,25.9,19.2,25.9,19.2,26L19.2,26c0-0.9,0.7-1.6,1.5-1.6l0,0c0.8,0,1.5,0.7,1.5,1.5l0,0l0,0l0,0l0,0
			l0,0c0,0.8-0.7,1.5-1.5,1.5l0,0l0,0l0,0C19.9,27.5,19.2,26.8,19.2,26z M19.2,26L19.2,26L19.2,26L19.2,26L19.2,26L19.2,26z
			 M63,23.1L63,23.1c-0.1-0.8,0.5-1.6,1.3-1.7l0,0c0.8-0.1,1.6,0.5,1.7,1.3l0,0c0.1,0.8-0.5,1.6-1.3,1.7l0,0c-0.1,0-0.1,0-0.2,0l0,0
			C63.7,24.4,63.1,23.8,63,23.1z M21.1,21.4c-0.8-0.2-1.3-1-1-1.9l0,0c0.2-0.8,1.1-1.3,1.9-1l0,0c0.8,0.2,1.3,1.1,1,1.9l0,0
			c-0.2,0.7-0.8,1.1-1.4,1.1l0,0C21.4,21.5,21.2,21.4,21.1,21.4z M61.5,17.7L61.5,17.7c-0.3-0.8,0-1.6,0.8-2l0,0
			c0.8-0.3,1.6,0,2,0.8l0,0l0,0l0,0c0.3,0.8,0,1.6-0.8,2l0,0c-0.2,0.1-0.4,0.1-0.6,0.1l0,0C62.3,18.6,61.7,18.3,61.5,17.7z
			 M23.1,15.7c-0.7-0.4-0.9-1.3-0.5-2.1l0,0c0.4-0.7,1.4-0.9,2.1-0.5l0,0c0.7,0.4,0.9,1.4,0.5,2.1l0,0c-0.3,0.5-0.8,0.7-1.3,0.7l0,0
			C23.6,16,23.4,15.9,23.1,15.7z M58.6,12.9L58.6,12.9c-0.5-0.6-0.4-1.6,0.2-2.1l0,0c0.7-0.5,1.6-0.4,2.1,0.2l0,0
			c0.5,0.6,0.4,1.6-0.2,2.1l0,0c-0.3,0.2-0.6,0.3-1,0.3l0,0C59.3,13.5,58.9,13.3,58.6,12.9z M26.6,10.8c-0.6-0.6-0.5-1.5,0.1-2.1
			l0,0c0.6-0.6,1.6-0.5,2.1,0.1l0,0c0.6,0.6,0.5,1.6-0.1,2.1l0,0c-0.3,0.3-0.7,0.4-1,0.4l0,0C27.3,11.3,26.9,11.2,26.6,10.8z
			 M54.5,9.1c-0.7-0.5-0.8-1.4-0.4-2.1l0,0c0.5-0.7,1.4-0.8,2.1-0.4l0,0C56.9,7.1,57,8,56.6,8.7l0,0c-0.3,0.4-0.8,0.6-1.2,0.6l0,0
			C55.1,9.4,54.8,9.3,54.5,9.1z M31.2,7.1c-0.4-0.7-0.1-1.6,0.6-2l0,0c0.7-0.4,1.6-0.1,2,0.6l0,0c0.4,0.7,0.1,1.6-0.6,2l0,0
			c-0.2,0.1-0.5,0.2-0.7,0.2l0,0C32,7.9,31.5,7.6,31.2,7.1z M49.5,6.6L49.5,6.6c-0.8-0.3-1.2-1.1-0.9-1.9l0,0
			c0.3-0.8,1.1-1.2,1.9-0.9l0,0c0.8,0.3,1.2,1.1,0.9,1.9l0,0c-0.2,0.6-0.8,1-1.4,1l0,0C49.9,6.7,49.7,6.6,49.5,6.6z M36.7,4.7
			c-0.2-0.8,0.3-1.6,1.2-1.8l0,0c0.8-0.2,1.6,0.4,1.8,1.2l0,0c0.2,0.8-0.4,1.6-1.2,1.8l0,0c-0.1,0-0.2,0-0.3,0l0,0
			C37.5,5.9,36.9,5.4,36.7,4.7z M44.1,5.4L44.1,5.4c-0.8-0.1-1.5-0.8-1.4-1.6l0,0c0.1-0.8,0.8-1.4,1.6-1.4l0,0
			c0.8,0.1,1.5,0.8,1.4,1.6l0,0C45.6,4.8,45,5.4,44.1,5.4L44.1,5.4C44.1,5.4,44.1,5.4,44.1,5.4z"/>
		<path class="st2" d="M42.7,54.4c-15.7,0-28.5-12.8-28.5-28.5S27-2.6,42.7-2.6s28.5,12.8,28.5,28.5S58.4,54.4,42.7,54.4z M42.7,0.4
			c-14.1,0-25.5,11.4-25.5,25.5s11.4,25.5,25.5,25.5S68.2,40,68.2,25.9S56.8,0.4,42.7,0.4z"/>
	</g>
	<g>
		<path class="st2" d="M55.7,37.2c-0.8-0.3-1.6,0.1-1.9,0.8c-0.8,2-3,3.4-5.4,3.4c-3.1,0-5.7-2.3-5.7-5v-1.5h9.5
			c0.8,0,1.5-0.7,1.5-1.5s-0.7-1.5-1.5-1.5h-9.5v-2h9.5c0.8,0,1.5-0.7,1.5-1.5s-0.7-1.5-1.5-1.5h-9.5v-1.5c0-2.8,2.6-5,5.7-5
			c2.4,0,4.6,1.4,5.4,3.4c0.3,0.8,1.2,1.1,1.9,0.8c0.8-0.3,1.2-1.2,0.8-1.9c-1.2-3.2-4.5-5.3-8.2-5.3c-4.8,0-8.7,3.6-8.7,8v1.5h-1.5
			c-0.8,0-1.5,0.7-1.5,1.5s0.7,1.5,1.5,1.5h1.6v2h-1.5c-0.8,0-1.5,0.7-1.5,1.5s0.7,1.5,1.5,1.5h1.5v1.5c0,4.4,3.9,8,8.7,8
			c3.6,0,6.9-2.1,8.2-5.3C56.9,38.4,56.5,37.5,55.7,37.2z"/>
		<path class="st2" d="M86.2,54.1h-77c-0.8,0-1.5-0.7-1.5-1.5V9.1c0-0.8,0.7-1.5,1.5-1.5h77c0.8,0,1.5,0.7,1.5,1.5v43.5
			C87.7,53.5,87,54.1,86.2,54.1z M10.7,51.1h74V10.7h-74V51.1z"/>
		<g class="st2">
			<path d="M27.2,30.9c0-6.1,2.6-11.5,6.8-15.2H17.2c-0.8,0-1.5,0.7-1.5,1.5v27.5c0,0.8,0.7,1.5,1.5,1.5H34
				C29.8,42.4,27.2,37,27.2,30.9z"/>
			<path d="M78.2,15.7H61.4c4.2,3.8,6.8,9.2,6.8,15.2s-2.6,11.5-6.8,15.2h16.8c0.8,0,1.5-0.7,1.5-1.5V17.1
				C79.7,16.3,79,15.7,78.2,15.7z"/>
		</g>
	</g>
	<g>
		<path class="st2" d="M50.7,32.2c-0.8-0.3-1.6,0.1-1.9,0.8c-0.8,2-3,3.4-5.4,3.4c-3.1,0-5.7-2.3-5.7-5v-1.5h9.5
			c0.8,0,1.5-0.7,1.5-1.5s-0.7-1.5-1.5-1.5h-9.5v-2h9.5c0.8,0,1.5-0.7,1.5-1.5s-0.7-1.5-1.5-1.5h-9.5v-1.5c0-2.8,2.6-5,5.7-5
			c2.4,0,4.6,1.4,5.4,3.4c0.3,0.8,1.2,1.1,1.9,0.8c0.8-0.3,1.2-1.2,0.8-1.9c-1.2-3.2-4.5-5.3-8.2-5.3c-4.8,0-8.7,3.6-8.7,8v1.5h-1.5
			c-0.8,0-1.5,0.7-1.5,1.5s0.7,1.5,1.5,1.5h1.6v2h-1.5c-0.8,0-1.5,0.7-1.5,1.5s0.7,1.5,1.5,1.5h1.5v1.5c0,4.4,3.9,8,8.7,8
			c3.6,0,6.9-2.1,8.2-5.3C51.9,33.4,51.5,32.5,50.7,32.2z"/>
		<path class="st2" d="M91.2,59.1h-77c-0.8,0-1.5-0.7-1.5-1.5s0.7-1.5,1.5-1.5h75.5v-42c0-0.8,0.7-1.5,1.5-1.5s1.5,0.7,1.5,1.5v43.5
			C92.7,58.5,92,59.1,91.2,59.1z"/>
		<path class="st2" d="M86.2,54.1h-77c-0.8,0-1.5-0.7-1.5-1.5s0.7-1.5,1.5-1.5h75.5v-42c0-0.8,0.7-1.5,1.5-1.5s1.5,0.7,1.5,1.5v43.5
			C87.7,53.5,87,54.1,86.2,54.1z"/>
		<path class="st2" d="M81.2,49.1h-77c-0.8,0-1.5-0.7-1.5-1.5V4.1c0-0.8,0.7-1.5,1.5-1.5h77c0.8,0,1.5,0.7,1.5,1.5v43.5
			C82.7,48.5,82,49.1,81.2,49.1z M5.7,46.1h74V5.7h-74V46.1z"/>
		<g class="st2">
			<path d="M22.2,25.9c0-6.1,2.6-11.5,6.8-15.2H12.2c-0.8,0-1.5,0.7-1.5,1.5v27.5c0,0.8,0.7,1.5,1.5,1.5H29
				C24.8,37.4,22.2,32,22.2,25.9z"/>
			<path d="M73.2,10.7H56.4c4.2,3.8,6.8,9.2,6.8,15.2s-2.6,11.5-6.8,15.2h16.8c0.8,0,1.5-0.7,1.5-1.5V12.1
				C74.7,11.3,74,10.7,73.2,10.7z"/>
		</g>
	</g>
	<g>
		<path class="st2" d="M55.7,37.2c-0.8-0.3-1.6,0.1-1.9,0.8c-0.8,2-3,3.4-5.4,3.4c-3.1,0-5.7-2.3-5.7-5v-1.5h9.5
			c0.8,0,1.5-0.7,1.5-1.5s-0.7-1.5-1.5-1.5h-9.5v-2h9.5c0.8,0,1.5-0.7,1.5-1.5s-0.7-1.5-1.5-1.5h-9.5v-1.5c0-2.8,2.6-5,5.7-5
			c2.4,0,4.6,1.4,5.4,3.4c0.3,0.8,1.2,1.1,1.9,0.8c0.8-0.3,1.2-1.2,0.8-1.9c-1.2-3.2-4.5-5.3-8.2-5.3c-4.8,0-8.7,3.6-8.7,8v1.5h-1.5
			c-0.8,0-1.5,0.7-1.5,1.5s0.7,1.5,1.5,1.5h1.6v2h-1.5c-0.8,0-1.5,0.7-1.5,1.5s0.7,1.5,1.5,1.5h1.5v1.5c0,4.4,3.9,8,8.7,8
			c3.6,0,6.9-2.1,8.2-5.3C56.9,38.4,56.5,37.5,55.7,37.2z"/>
		<path class="st2" d="M51.8,3.3c-0.3,0-0.6-0.1-0.9-0.3c-0.7-0.5-0.8-1.4-0.3-2.1l2.8-3.7l-5.5,0.6c-0.1,0-0.2,0-0.3,0l-5.5-0.6
			l2.8,3.7c0.5,0.7,0.4,1.6-0.3,2.1S43,3.4,42.5,2.7l-4.9-6.5c-0.4-0.5-0.4-1.1-0.1-1.6c0.3-0.5,0.9-0.8,1.5-0.8l8.8,1l8.8-1
			c0.6-0.1,1.2,0.2,1.5,0.8s0.3,1.2-0.1,1.6l-4.9,6.5C52.7,3.1,52.2,3.3,51.8,3.3z"/>
		<path class="st2" d="M47.7,54.9C37.5,54.9,26,54.9,26,40c0-13.9,9.7-35.1,21.7-35.1S69.4,26.1,69.4,40
			C69.4,54.9,57.9,54.9,47.7,54.9z M47.7,7.9c-4.4,0-9.1,4.1-12.9,11.1c-3.5,6.5-5.7,14.7-5.7,20.9c-0.1,11.4,7,12,18.6,12
			S66.4,51.3,66.4,40c0-6.3-2.2-14.5-5.7-20.9C56.8,12,52.1,7.9,47.7,7.9z"/>
	</g>
	<g>
		<path class="st2" d="M55.7,37.2c-0.8-0.3-1.6,0.1-1.9,0.8c-0.8,2-3,3.4-5.4,3.4c-3.1,0-5.7-2.3-5.7-5v-1.5h9.5
			c0.8,0,1.5-0.7,1.5-1.5s-0.7-1.5-1.5-1.5h-9.5v-2h9.5c0.8,0,1.5-0.7,1.5-1.5s-0.7-1.5-1.5-1.5h-9.5v-1.5c0-2.8,2.6-5,5.7-5
			c2.4,0,4.6,1.4,5.4,3.4c0.3,0.8,1.2,1.1,1.9,0.8c0.8-0.3,1.2-1.2,0.8-1.9c-1.2-3.2-4.5-5.3-8.2-5.3c-4.8,0-8.7,3.6-8.7,8v1.5h-1.5
			c-0.8,0-1.5,0.7-1.5,1.5s0.7,1.5,1.5,1.5h1.6v2h-1.5c-0.8,0-1.5,0.7-1.5,1.5s0.7,1.5,1.5,1.5h1.5v1.5c0,4.4,3.9,8,8.7,8
			c3.6,0,6.9-2.1,8.2-5.3C56.9,38.4,56.5,37.5,55.7,37.2z"/>
		<path class="st2" d="M27.7,51.4c-0.8,0-1.5-0.7-1.5-1.5v-38c0-0.8,0.7-1.5,1.5-1.5s1.5,0.7,1.5,1.5v38
			C29.2,50.7,28.5,51.4,27.7,51.4z"/>
		<path class="st2" d="M17.7,51.4c-0.8,0-1.5-0.7-1.5-1.5v-38c0-0.8,0.7-1.5,1.5-1.5s1.5,0.7,1.5,1.5v38
			C19.2,50.7,18.5,51.4,17.7,51.4z"/>
		<path class="st2" d="M67.7,51.4c-0.8,0-1.5-0.7-1.5-1.5v-38c0-0.8,0.7-1.5,1.5-1.5s1.5,0.7,1.5,1.5v38
			C69.2,50.7,68.5,51.4,67.7,51.4z"/>
		<path class="st2" d="M77.7,51.4c-0.8,0-1.5-0.7-1.5-1.5v-38c0-0.8,0.7-1.5,1.5-1.5s1.5,0.7,1.5,1.5v38
			C79.2,50.7,78.5,51.4,77.7,51.4z"/>
		<path class="st2" d="M81.2,8.4L81.2,8.4h-67c-0.7,0-1.3-0.5-1.4-1.1c-0.2-0.7,0.1-1.3,0.7-1.7l33.5-20c0.5-0.3,1.1-0.3,1.5,0
			L81.9,5.5c0.5,0.2,0.9,0.8,0.9,1.4C82.7,7.7,82,8.4,81.2,8.4z M19.6,5.4h56.1l-28-16.8L19.6,5.4z"/>
		<path class="st2" d="M81.2,56.4h-67c-0.8,0-1.5-0.7-1.5-1.5s0.7-1.5,1.5-1.5h67c0.8,0,1.5,0.7,1.5,1.5S82,56.4,81.2,56.4z"/>
		<path class="st2" d="M86.2,61.4h-77c-0.8,0-1.5-0.7-1.5-1.5s0.7-1.5,1.5-1.5h77c0.8,0,1.5,0.7,1.5,1.5S87,61.4,86.2,61.4z"/>
		<path class="st2" d="M91.2,66.4h-87c-0.8,0-1.5-0.7-1.5-1.5s0.7-1.5,1.5-1.5h87c0.8,0,1.5,0.7,1.5,1.5S92,66.4,91.2,66.4z"/>
	</g>
	<g>
		<path class="st1" d="M54.7,35.4c0,3.6-3.1,6.5-7,6.5l0,0c-3.8,0-7-2.9-7-6.5v-11c0-3.6,3.1-6.5,7-6.5l0,0c3.8,0,7,2.9,7,6.5"/>
		<line class="st1" x1="47.7" y1="12.9" x2="47.7" y2="17.9"/>
		<line class="st1" x1="47.7" y1="41.9" x2="47.7" y2="46.9"/>
	</g>
	<g>
		<path class="st1" d="M54.7,35.4c0,3.6-3.1,6.5-7,6.5l0,0c-3.8,0-7-2.9-7-6.5v-11c0-3.6,3.1-6.5,7-6.5l0,0c3.8,0,7,2.9,7,6.5"/>
		<line class="st1" x1="47.7" y1="12.9" x2="47.7" y2="46.9"/>
	</g>
	<g>
		<path class="st1" d="M54.7,36.4c0,3.6-3.1,6.5-7,6.5l0,0c-3.8,0-7-2.9-7-6.5v-11c0-3.6,3.1-6.5,7-6.5l0,0c3.8,0,7,2.9,7,6.5"/>
		<line class="st1" x1="52.1" y1="14.5" x2="43.3" y2="47.3"/>
	</g>
	<g>
		<line class="st1" x1="39.9" y1="30.9" x2="51.9" y2="30.9"/>
		<path class="st3" d="M54.3,40.9c0,1.5-0.9,2-2.1,2s-4.7-2.4-9.8,0c0,0,3.9-3.3,3.9-6.4s-3.8-9.3-3.8-12c0-2.5,3-5.6,6.7-5.6
			c2.9,0,5.4,1.3,6.3,3.1"/>
	</g>
	<g>
		<line class="st1" x1="38.7" y1="28.4" x2="56.7" y2="28.4"/>
		<line class="st1" x1="38.7" y1="33.4" x2="56.7" y2="33.4"/>
		<path class="st1" d="M54.2,40.1c-0.7,1-2.9,2.8-6.5,2.8c-3.8,0-6.5-2.6-6.5-5.5c0-7.2,13-5.6,13-13c0-2.9-2.7-5.5-6.5-5.5
			c-3.6,0-5.7,1.7-6.5,2.8"/>
	</g>
	<g>
		<line class="st1" x1="38.7" y1="35.9" x2="52.7" y2="35.9"/>
		<line class="st1" x1="38.7" y1="30.9" x2="43.7" y2="30.9"/>
		<path class="st3" d="M43.7,42.9v-24h5.8c5.5,0,7.2,2,7.2,5.5s-1.8,6.5-7.2,6.5h-5.8"/>
	</g>
	<g>
		<line class="st3" x1="40.7" y1="17.9" x2="40.7" y2="41.9"/>
		<path class="st3" d="M42.7,29.9h5.1c5.9,0,8.9-2.2,8.9-6s-3-6-8.9-6h-7.1"/>
		<path class="st3" d="M42.7,29.9h5.1c5.9,0,8.9,2.2,8.9,6s-3,6-8.9,6h-7.1"/>
		<line class="st1" x1="47.7" y1="12.9" x2="47.7" y2="17.9"/>
		<line class="st1" x1="47.7" y1="41.9" x2="47.7" y2="46.9"/>
	</g>
	<g>
		<line class="st3" x1="42.7" y1="17.9" x2="42.7" y2="41.9"/>
		<path class="st3" d="M42.7,29.9h5.1c5.9,0,8.9-2.2,8.9-6s-3-6-8.9-6h-7.1"/>
		<path class="st3" d="M42.7,29.9h5.1c5.9,0,8.9,2.2,8.9,6s-3,6-8.9,6h-7.1"/>
		<line class="st1" x1="50.2" y1="12.9" x2="50.2" y2="17.9"/>
		<line class="st1" x1="50.2" y1="41.9" x2="50.2" y2="46.9"/>
		<line class="st1" x1="45.2" y1="12.9" x2="45.2" y2="17.9"/>
		<line class="st1" x1="45.2" y1="41.9" x2="45.2" y2="46.9"/>
	</g>
	<g>
		<path class="st3" d="M43.7,18.9v24c9.2,0,12-7.8,12-7.8"/>
		<line class="st1" x1="39.7" y1="27.9" x2="52.7" y2="23.9"/>
		<line class="st1" x1="39.7" y1="32.9" x2="52.7" y2="28.9"/>
	</g>
	<g>
		<line class="st1" x1="39.7" y1="18.9" x2="57.7" y2="18.9"/>
		<line class="st1" x1="39.7" y1="23.9" x2="57.7" y2="23.9"/>
		<path class="st3" d="M39.7,18.9h5.8c5.5,0,7.2,2.6,7.2,6s-1.8,6-7.2,6h-5.8l12,12"/>
	</g>
	<g>
		<polyline class="st3" points="55.7,18.9 47.7,30.9 39.7,18.9 		"/>
		<line class="st3" x1="47.7" y1="30.9" x2="47.7" y2="42.9"/>
		<line class="st1" x1="40.7" y1="32.4" x2="54.7" y2="32.4"/>
		<line class="st1" x1="40.7" y1="37.4" x2="54.7" y2="37.4"/>
	</g>
	<g>
		<line class="st3" x1="40.2" y1="21.9" x2="55.2" y2="21.9"/>
		<line class="st3" x1="38.7" y1="27.9" x2="56.7" y2="27.9"/>
		<path class="st3" d="M44.7,27.9c0,0,0,8.9-6,12"/>
		<polyline class="st3" points="50.7,27.9 50.7,39.9 55.2,39.9 56.7,35.9 		"/>
	</g>
	<g>
		<line class="st3" x1="38.7" y1="29.9" x2="56.7" y2="29.9"/>
		<polyline class="st3" points="38.7,39.9 38.7,21.9 56.7,21.9 56.7,39.9 52.7,39.9 		"/>
		<line class="st3" x1="47.7" y1="21.9" x2="47.7" y2="29.9"/>
	</g>
	<g>
		<path class="st3" d="M38.7,39.9v-18h7c0,0,5,0,5,8v4"/>
		<path class="st3" d="M56.7,21.9v11c0,0,0,7.2-6,7h-6v-12"/>
	</g>
	<g>
		<polyline class="st3" points="38.7,18.9 43.2,42.9 47.7,18.9 52.2,42.9 56.7,18.9 		"/>
		<line class="st1" x1="37.7" y1="28.4" x2="57.7" y2="28.4"/>
		<line class="st1" x1="37.7" y1="33.4" x2="57.7" y2="33.4"/>
	</g>
	<g>
		<line class="st3" x1="56.7" y1="39.9" x2="38.7" y2="21.9"/>
		<line class="st3" x1="38.7" y1="39.9" x2="56.7" y2="21.9"/>
		<circle class="st4" cx="47.7" cy="30.9" r="7.5"/>
	</g>
	<g>
		<line class="st3" x1="56.7" y1="39.9" x2="38.7" y2="21.9"/>
		<line class="st3" x1="38.7" y1="39.9" x2="56.7" y2="21.9"/>
		<path class="st4" d="M43.2,36.9c-1.8-1.4-3-3.5-3-6c0-4.1,3.4-7.5,7.5-7.5s7.5,3.4,7.5,7.5c0,2.5-1.2,4.7-3.1,6.1"/>
		<path class="st5" d="M51.6,44.7c-1.1,0.8-2.5,1.2-3.9,1.2c-1.5,0-2.9-0.5-4.1-1.3"/>
		<circle class="st2" cx="45.2" cy="31.4" r="2"/>
		<circle class="st2" cx="50.2" cy="31.4" r="2"/>
		<line class="st5" x1="47.7" y1="33.2" x2="47.7" y2="34.9"/>
		<circle class="st2" cx="47.7" cy="40.9" r="1.5"/>
		<circle class="st2" cx="45.2" cy="40.5" r="1.5"/>
		<circle class="st2" cx="50.2" cy="40.5" r="1.5"/>
	</g>
	<g>
		<line class="st3" x1="56.7" y1="39.9" x2="38.7" y2="21.9"/>
		<line class="st3" x1="38.7" y1="39.9" x2="56.7" y2="21.9"/>
		<circle class="st4" cx="47.7" cy="30.9" r="7.5"/>
		<path class="st5" d="M51.6,43.7c-1.1,0.8-2.5,1.2-3.9,1.2c-1.5,0-2.9-0.5-4.1-1.3"/>
		<circle class="st2" cx="45.2" cy="32.4" r="2"/>
		<circle class="st2" cx="50.2" cy="32.4" r="2"/>
		<line class="st5" x1="47.7" y1="35.2" x2="47.7" y2="37.7"/>
		<circle class="st2" cx="46.7" cy="40.4" r="1.5"/>
		<circle class="st2" cx="44.7" cy="39.9" r="1.5"/>
		<circle class="st2" cx="50.7" cy="39.9" r="1.5"/>
		<circle class="st2" cx="48.7" cy="40.4" r="1.5"/>
		<line class="st5" x1="44.7" y1="39.9" x2="44.7" y2="37.8"/>
		<line class="st5" x1="51" y1="39.9" x2="51" y2="37.7"/>
	</g>
	<g>
		<line class="st3" x1="56.7" y1="39.9" x2="38.7" y2="21.9"/>
		<line class="st3" x1="38.7" y1="39.9" x2="56.7" y2="21.9"/>
		<path class="st4" d="M44.7,39.9v-2.1l0,0c-2.6-1.2-4.5-3.8-4.5-6.9c0-4.1,3.4-7.5,7.5-7.5s7.5,3.4,7.5,7.5c0,3-1.7,5.5-4.2,6.7
			l0,0v2.3"/>
		<path class="st5" d="M51.6,43.7c-1.1,0.8-2.5,1.2-3.9,1.2c-1.5,0-2.9-0.5-4.1-1.3"/>
		<circle class="st2" cx="45.2" cy="32.4" r="2"/>
		<circle class="st2" cx="50.2" cy="32.4" r="2"/>
		<line class="st5" x1="47.7" y1="34.2" x2="47.7" y2="35.7"/>
		<circle class="st2" cx="46.7" cy="40.4" r="1.5"/>
		<circle class="st2" cx="44.7" cy="39.9" r="1.5"/>
		<circle class="st2" cx="50.7" cy="39.9" r="1.5"/>
		<circle class="st2" cx="48.7" cy="40.4" r="1.5"/>
	</g>
	<g>
		<path class="st1" d="M54.7,36.4c0,3.6-3.1,6.5-7,6.5l0,0c-3.8,0-7-2.9-7-6.5v-11c0-3.6,3.1-6.5,7-6.5l0,0c3.8,0,7,2.9,7,6.5V36.4z
			"/>
		<line class="st1" x1="50.7" y1="19.7" x2="44.7" y2="42.1"/>
	</g>
	<g>
		<line class="st1" x1="50.9" y1="18.9" x2="44.5" y2="42.9"/>
		<path class="st1" d="M50.7,36.1c0-2,1.8-3.7,4-3.7l0,0c2.2,0,4,1.6,4,3.7v3.2c0,2-1.8,3.7-4,3.7l0,0c-2.2,0-4-1.6-4-3.7V36.1z"/>
		<path class="st1" d="M44.7,25.7c0,2-1.8,3.7-4,3.7l0,0c-2.2,0-4-1.6-4-3.7v-3.2c0-2,1.8-3.7,4-3.7l0,0c2.2,0,4,1.6,4,3.7V25.7z"/>
	</g>
	<g>
		<path class="st1" d="M47.7,37.2c0-5.6,5.4-9.4,5.4-12.7c0-3.1-2.5-5.6-5.6-5.6c-2.4,0-4.5,1.6-5.3,3.8"/>
		<circle class="st2" cx="47.7" cy="42.4" r="2"/>
	</g>
	<g>
		<circle class="st5" cx="47.7" cy="26.7" r="7.8"/>
		<path class="st5" d="M52.1,41.6c-1.3,0.8-2.8,1.3-4.4,1.3c-1.7,0-3.3-0.5-4.5-1.4"/>
		<path class="st5" d="M52.1,36.6c-1.3,0.8-2.8,1.3-4.4,1.3c-1.7,0-3.3-0.5-4.5-1.4"/>
	</g>
	<g>
		<path class="st5" d="M47.7,37.9c1.7,0,3.3-0.5,4.5-1.4c0,0-0.4-2.6,0.9-4.1l0,0c1.5-1.4,2.4-3.4,2.4-5.6c0-4.3-3.5-7.8-7.8-7.8
			s-7.8,3.5-7.8,7.8c0,2.2,0.9,4.2,2.4,5.6l0,0c1.3,1.5,0.9,4.1,0.9,4.1C44.4,37.4,46,37.9,47.7,37.9z"/>
		<path class="st5" d="M52.1,41.6c-1.3,0.8-2.8,1.3-4.4,1.3c-1.7,0-3.3-0.5-4.5-1.4"/>
		<circle class="st2" cx="45.2" cy="27.9" r="2"/>
		<circle class="st2" cx="50.2" cy="27.9" r="2"/>
		<line class="st5" x1="47.7" y1="31.3" x2="47.7" y2="33"/>
	</g>
	<g>
		<line class="st3" x1="57.7" y1="35.9" x2="37.7" y2="18.9"/>
		<line class="st3" x1="37.7" y1="35.9" x2="57.7" y2="18.9"/>
		<path class="st6" d="M47.7,37.9c1.7,0,3.3-0.5,4.5-1.4c0,0-0.4-2.6,0.9-4.1l0,0c1.5-1.4,2.4-3.4,2.4-5.6c0-4.3-3.5-7.8-7.8-7.8
			s-7.8,3.5-7.8,7.8c0,2.2,0.9,4.2,2.4,5.6l0,0c1.3,1.5,0.9,4.1,0.9,4.1C44.4,37.4,46,37.9,47.7,37.9z"/>
		<path class="st5" d="M52.1,41.6c-1.3,0.8-2.8,1.3-4.4,1.3c-1.7,0-3.3-0.5-4.5-1.4"/>
		<circle class="st2" cx="45.2" cy="27.9" r="2"/>
		<circle class="st2" cx="50.2" cy="27.9" r="2"/>
		<line class="st5" x1="47.7" y1="31.3" x2="47.7" y2="33"/>
	</g>
	<g>
		<line class="st3" x1="57.1" y1="18.7" x2="38.3" y2="35.1"/>
		<line class="st3" x1="56.5" y1="17.9" x2="57.8" y2="19.4"/>
		<line class="st3" x1="37.6" y1="34.4" x2="38.9" y2="35.9"/>
		<line class="st3" x1="57.1" y1="35.1" x2="38.3" y2="18.7"/>
		<path class="st6" d="M47.7,37.9c1.7,0,3.3-0.5,4.5-1.4c0,0-0.4-2.6,0.9-4.1l0,0c1.5-1.4,2.4-3.4,2.4-5.6c0-4.3-3.5-7.8-7.8-7.8
			s-7.8,3.5-7.8,7.8c0,2.2,0.9,4.2,2.4,5.6l0,0c1.3,1.5,0.9,4.1,0.9,4.1C44.4,37.4,46,37.9,47.7,37.9z"/>
		<path class="st5" d="M52.1,41.6c-1.3,0.8-2.8,1.3-4.4,1.3c-1.7,0-3.3-0.5-4.5-1.4"/>
		<circle class="st2" cx="45.2" cy="27.9" r="2"/>
		<circle class="st2" cx="50.2" cy="27.9" r="2"/>
		<line class="st5" x1="47.7" y1="31.3" x2="47.7" y2="33"/>
		<line class="st3" x1="56.5" y1="35.9" x2="57.8" y2="34.4"/>
		<line class="st3" x1="37.6" y1="19.4" x2="38.9" y2="17.9"/>
	</g>
	<g>
		<line class="st3" x1="57.1" y1="18.7" x2="38.3" y2="35.1"/>
		<line class="st3" x1="56.5" y1="17.9" x2="57.8" y2="19.4"/>
		<line class="st3" x1="37.6" y1="34.4" x2="38.9" y2="35.9"/>
		<line class="st3" x1="57.1" y1="35.1" x2="38.3" y2="18.7"/>
		<path class="st6" d="M47.7,37.9c1.7,0,3.3-0.5,4.5-1.4c0,0-0.4-2.6,0.9-4.1l0,0c1.5-1.4,2.4-3.4,2.4-5.6c0-4.3-3.5-7.8-7.8-7.8
			s-7.8,3.5-7.8,7.8c0,2.2,0.9,4.2,2.4,5.6l0,0c1.3,1.5,0.9,4.1,0.9,4.1C44.4,37.4,46,37.9,47.7,37.9z"/>
		<path class="st5" d="M53.1,41.3c-1.5,1-3.4,1.6-5.4,1.6c-2.1,0-4-0.7-5.6-1.8"/>
		<circle class="st2" cx="45.2" cy="28.9" r="2.5"/>
		<circle class="st2" cx="50.2" cy="28.9" r="2.5"/>
		<line class="st5" x1="47.7" y1="30.4" x2="47.7" y2="32.4"/>
		<line class="st3" x1="56.5" y1="35.9" x2="57.8" y2="34.4"/>
		<line class="st3" x1="37.6" y1="19.4" x2="38.9" y2="17.9"/>
	</g>
	<g>
		<line class="st3" x1="57.1" y1="19.2" x2="38.3" y2="35.6"/>
		<line class="st3" x1="56.5" y1="18.4" x2="57.8" y2="19.9"/>
		<line class="st3" x1="37.6" y1="34.8" x2="38.9" y2="36.4"/>
		<line class="st3" x1="57.1" y1="35.6" x2="38.3" y2="19.2"/>
		<path class="st6" d="M52.2,36.9c0,0-0.4-2.6,0.9-4.1l0,0c1.5-1.4,2.4-3.4,2.4-5.6c0-4.3-3.5-7.8-7.8-7.8s-7.8,3.5-7.8,7.8
			c0,2.2,0.9,4.2,2.4,5.6l0,0c1.3,1.5,0.9,4.1,0.9,4.1"/>
		<path class="st5" d="M53.1,41.7c-1.5,1-3.4,1.6-5.4,1.6c-2.1,0-4-0.7-5.6-1.8"/>
		<circle class="st2" cx="45.2" cy="29.4" r="2.5"/>
		<circle class="st2" cx="50.2" cy="29.4" r="2.5"/>
		<line class="st5" x1="47.7" y1="30.9" x2="47.7" y2="32.9"/>
		<line class="st3" x1="56.5" y1="36.4" x2="57.8" y2="34.8"/>
		<line class="st3" x1="37.6" y1="19.9" x2="38.9" y2="18.4"/>
		<circle class="st2" cx="47.7" cy="38.4" r="1.5"/>
		<circle class="st2" cx="45.2" cy="38" r="1.5"/>
		<circle class="st2" cx="50.2" cy="38" r="1.5"/>
	</g>
	<g>
		<path class="st3" d="M47.7,46.9c-7-6.2-14-12.7-14-20c0-5.9,3.3-8,6.9-8c3.6,0,7.1,4.8,7.1,4.8s3.5-4.8,7.1-4.8
			c3.5,0,6.9,2.2,6.9,8C61.7,34.2,54.7,40.7,47.7,46.9z"/>
	</g>
	<g>
		<circle class="st7" cx="47.7" cy="30.9" r="12"/>
	</g>
	<g>
		<rect x="39.2" y="22.4" transform="matrix(0.7071 -0.7071 0.7071 0.7071 -7.8669 42.7622)" class="st5" width="17" height="17"/>
	</g>
	<g>
		<g class="st2">
			<circle class="st8" cx="47.7" cy="30.9" r="22"/>
		</g>
		<circle class="st9" cx="47.7" cy="30.9" r="27"/>
	</g>
	<g>
		<path class="st2" d="M47.8,52.9c0-0.8,0.6-1.5,1.4-1.6l0,0c0.8-0.1,1.5,0.6,1.6,1.4l0,0c0.1,0.8-0.6,1.5-1.4,1.6l0,0h-0.1l0,0
			C48.5,54.3,47.8,53.7,47.8,52.9z M43,53.9c-0.8-0.2-1.3-1-1.2-1.8l0,0c0.2-0.8,1-1.3,1.8-1.2l0,0c0.8,0.2,1.3,1,1.2,1.8l0,0
			c-0.1,0.7-0.8,1.2-1.5,1.2l0,0C43.2,54,43.1,53.9,43,53.9z M53.7,52.1c-0.3-0.8,0.1-1.6,0.9-1.9l0,0c0.8-0.3,1.6,0.1,1.9,0.9l0,0
			c0.3,0.8-0.1,1.6-0.9,1.9l0,0c-0.2,0.1-0.3,0.1-0.5,0.1l0,0C54.5,53.1,53.9,52.7,53.7,52.1z M37,51.8c-0.7-0.4-1-1.3-0.6-2l0,0
			c0.4-0.7,1.3-1,2-0.6l0,0c0.7,0.4,1,1.3,0.6,2l0,0c-0.3,0.5-0.8,0.8-1.3,0.8l0,0C37.4,52,37.2,51.9,37,51.8z M59.2,49.7
			c-0.5-0.7-0.3-1.6,0.3-2.1l0,0c0.7-0.5,1.6-0.3,2.1,0.3l0,0c0.5,0.7,0.3,1.6-0.4,2.1l0,0l0,0l0,0c-0.3,0.2-0.6,0.3-0.9,0.3l0,0
			C60,50.3,59.5,50.1,59.2,49.7z M31.7,48.1c-0.6-0.6-0.6-1.5-0.1-2.1l0,0c0.6-0.6,1.5-0.6,2.1-0.1l0,0c0.6,0.6,0.6,1.5,0.1,2.1l0,0
			c-0.3,0.3-0.7,0.5-1.1,0.5l0,0C32.4,48.5,32,48.4,31.7,48.1z M63.9,45.9c-0.7-0.5-0.8-1.5-0.2-2.1l0,0c0.5-0.6,1.5-0.8,2.1-0.2
			l0,0c0.6,0.5,0.7,1.5,0.2,2.1l0,0l0,0l0,0c-0.3,0.4-0.7,0.5-1.2,0.5l0,0C64.5,46.2,64.1,46.1,63.9,45.9z M27.7,43.2
			c-0.4-0.7-0.2-1.6,0.5-2.1l0,0c0.7-0.4,1.6-0.2,2.1,0.5l0,0c0.4,0.7,0.2,1.6-0.5,2.1l0,0c-0.2,0.1-0.5,0.2-0.8,0.2l0,0
			C28.4,43.9,27.9,43.7,27.7,43.2z M67.3,41c-0.8-0.3-1.1-1.2-0.8-2l0,0c0.3-0.8,1.2-1.1,2-0.8l0,0c0.8,0.3,1.1,1.2,0.8,2l0,0l0,0
			l0,0c-0.2,0.6-0.8,0.9-1.4,0.9l0,0C67.7,41.1,67.5,41.1,67.3,41z M25.1,37.3c-0.2-0.8,0.2-1.6,1-1.8l0,0c0.8-0.2,1.6,0.2,1.9,1
			l0,0c0.2,0.8-0.2,1.6-1,1.9l0,0c-0.1,0-0.3,0.1-0.4,0.1l0,0C25.9,38.4,25.3,38,25.1,37.3z M69.3,35.3c-0.8-0.1-1.4-0.9-1.3-1.7
			l0,0c0.1-0.8,0.9-1.4,1.7-1.3l0,0c0.8,0.1,1.4,0.9,1.3,1.7l0,0c-0.1,0.8-0.8,1.3-1.5,1.3l0,0C69.4,35.4,69.4,35.3,69.3,35.3z
			 M24.2,31L24.2,31L24.2,31C24.2,30.9,24.2,30.9,24.2,31L24.2,31L24.2,31L24.2,31c0-0.9,0.7-1.6,1.5-1.6l0,0c0.8,0,1.5,0.7,1.5,1.5
			l0,0l0,0l0,0l0,0l0,0c0,0.8-0.7,1.5-1.5,1.5l0,0C24.9,32.5,24.2,31.8,24.2,31z M24.2,31L24.2,31L24.2,31L24.2,31L24.2,31L24.2,31z
			 M68,28.1c-0.1-0.8,0.5-1.6,1.3-1.7l0,0c0.8-0.1,1.6,0.5,1.7,1.3l0,0l0,0l0,0c0.1,0.8-0.5,1.6-1.3,1.7l0,0c-0.1,0-0.1,0-0.2,0l0,0
			C68.7,29.4,68.1,28.8,68,28.1z M26.1,26.4c-0.8-0.2-1.3-1-1-1.9l0,0l0,0l0,0c0.2-0.8,1-1.3,1.8-1l0,0c0.8,0.2,1.3,1.1,1,1.9l0,0
			c-0.2,0.7-0.8,1.1-1.4,1.1l0,0C26.4,26.5,26.2,26.4,26.1,26.4z M66.5,22.7L66.5,22.7c-0.3-0.8,0-1.6,0.8-2l0,0
			c0.8-0.3,1.7,0,2,0.8l0,0c0.3,0.8,0,1.6-0.8,2l0,0c-0.2,0.1-0.4,0.1-0.6,0.1l0,0C67.3,23.6,66.7,23.3,66.5,22.7z M28.1,20.7
			c-0.7-0.4-0.9-1.3-0.5-2.1l0,0l0,0l0,0c0.4-0.7,1.4-0.9,2.1-0.5l0,0c0.7,0.4,0.9,1.4,0.5,2.1l0,0c-0.3,0.5-0.8,0.7-1.3,0.7l0,0
			C28.6,21,28.4,20.9,28.1,20.7z M63.6,17.9c-0.5-0.6-0.4-1.6,0.2-2.1l0,0c0.6-0.5,1.6-0.4,2.1,0.2l0,0c0.5,0.6,0.4,1.6-0.2,2.1l0,0
			c-0.3,0.2-0.6,0.3-1,0.3l0,0C64.3,18.5,63.9,18.3,63.6,17.9z M31.6,15.8c-0.6-0.6-0.5-1.5,0.1-2.1l0,0c0.6-0.6,1.6-0.5,2.1,0.1
			l0,0c0.6,0.6,0.5,1.6-0.1,2.1l0,0c-0.3,0.3-0.7,0.4-1,0.4l0,0C32.3,16.3,31.9,16.2,31.6,15.8z M59.5,14.1
			c-0.7-0.5-0.8-1.4-0.4-2.1l0,0c0.5-0.7,1.4-0.8,2.1-0.4l0,0c0.7,0.5,0.8,1.4,0.4,2.1l0,0c-0.3,0.4-0.8,0.6-1.2,0.6l0,0
			C60.1,14.4,59.8,14.3,59.5,14.1z M36.2,12.1c-0.4-0.7-0.1-1.6,0.6-2l0,0c0.7-0.4,1.6-0.1,2,0.6l0,0c0.4,0.7,0.1,1.6-0.6,2l0,0
			c-0.2,0.1-0.5,0.2-0.7,0.2l0,0C37,12.9,36.5,12.6,36.2,12.1z M54.5,11.6c-0.8-0.3-1.2-1.1-0.9-1.9l0,0c0.3-0.8,1.1-1.2,1.9-0.9
			l0,0c0.8,0.3,1.2,1.1,0.9,1.9l0,0c-0.2,0.6-0.8,1-1.4,1l0,0C54.9,11.7,54.7,11.6,54.5,11.6z M41.7,9.7c-0.2-0.8,0.3-1.6,1.2-1.8
			l0,0c0.8-0.2,1.6,0.4,1.8,1.2l0,0c0.2,0.8-0.4,1.6-1.2,1.8l0,0c-0.1,0-0.2,0-0.3,0l0,0C42.5,10.9,41.9,10.4,41.7,9.7z M49.1,10.4
			L49.1,10.4c-0.8-0.1-1.5-0.8-1.4-1.6l0,0c0-0.8,0.8-1.4,1.6-1.4l0,0l0,0l0,0c0.8,0,1.5,0.8,1.4,1.6l0,0
			C50.6,9.8,50,10.4,49.1,10.4L49.1,10.4L49.1,10.4z"/>
		<path class="st2" d="M47.7,59.4c-15.7,0-28.5-12.8-28.5-28.5S32,2.4,47.7,2.4s28.5,12.8,28.5,28.5S63.4,59.4,47.7,59.4z M47.7,5.4
			c-14.1,0-25.5,11.4-25.5,25.5s11.4,25.5,25.5,25.5S73.2,45,73.2,30.9S61.8,5.4,47.7,5.4z"/>
	</g>
	<g>
		<g class="st2">
			<path class="st10" d="M46,58.9c0.9,0.1,1.9,0.2,2.8,0.2c14.9,0,27-12.1,27-27c0-1-0.1-2.1-0.2-3.1"/>
		</g>
		<g class="st2">
			<path class="st10" d="M52.1,65c0.9,0.1,1.9,0.2,2.8,0.2c14.9,0,27-12.1,27-27c0-1-0.1-2.1-0.2-3.1"/>
		</g>
		<g class="st2">
			<circle class="st8" cx="42.7" cy="25.9" r="22"/>
		</g>
		<circle class="st9" cx="42.7" cy="25.9" r="27"/>
	</g>
	<g>
		<g class="st2">
			<path d="M48.8,60.5c-1,0-2-0.1-3-0.2c-0.8-0.1-1.4-0.8-1.3-1.6c0.1-0.8,0.8-1.4,1.6-1.3c0.9,0.1,1.8,0.1,2.7,0.1
				c14,0,25.5-11.4,25.5-25.5c0-1-0.1-2-0.2-2.9c-0.1-0.8,0.5-1.6,1.3-1.7c0.8-0.1,1.6,0.5,1.7,1.3c0.1,1.1,0.2,2.2,0.2,3.3
				C77.3,47.7,64.5,60.5,48.8,60.5z"/>
		</g>
		<g class="st2">
			<path d="M55,66.6c-1,0-2-0.1-3-0.2c-0.8-0.1-1.4-0.8-1.3-1.7c0.1-0.9,0.8-1.4,1.7-1.3s1.8,0.1,2.7,0.1c14,0,25.5-11.4,25.5-25.5
				c0-1-0.1-1.9-0.2-2.9c-0.1-0.8,0.5-1.6,1.3-1.7c0.8-0.1,1.6,0.5,1.7,1.3c0.1,1.1,0.2,2.2,0.2,3.3C83.4,53.9,70.7,66.6,55,66.6z"
				/>
		</g>
		<path class="st2" d="M42.8,47.9c-0.1-0.8,0.6-1.5,1.4-1.6l0,0c0.8-0.1,1.5,0.6,1.6,1.4l0,0c0,0.8-0.6,1.5-1.4,1.6l0,0h-0.1l0,0
			C43.5,49.3,42.8,48.7,42.8,47.9z M38,48.9c-0.8-0.2-1.3-1-1.2-1.8l0,0c0.2-0.8,1-1.3,1.8-1.2l0,0c0.8,0.2,1.3,1,1.2,1.8l0,0
			c-0.1,0.7-0.8,1.2-1.5,1.2l0,0C38.2,49,38.1,48.9,38,48.9z M48.7,47.1c-0.3-0.8,0.1-1.6,0.9-1.9l0,0c0.8-0.3,1.6,0.1,1.9,0.9l0,0
			c0.3,0.8-0.1,1.6-0.9,1.9l0,0c-0.2,0.1-0.3,0.1-0.5,0.1l0,0C49.5,48.1,48.9,47.7,48.7,47.1z M32,46.8c-0.7-0.4-1-1.3-0.6-2l0,0
			c0.4-0.7,1.3-1,2-0.6l0,0c0.7,0.4,1,1.3,0.6,2l0,0c-0.3,0.5-0.8,0.8-1.3,0.8l0,0C32.4,47,32.2,46.9,32,46.8z M54.2,44.7
			c-0.5-0.7-0.3-1.6,0.4-2.1l0,0c0.7-0.5,1.6-0.3,2.1,0.3l0,0c0.5,0.7,0.3,1.6-0.4,2.1l0,0l0,0l0,0c-0.3,0.2-0.6,0.3-0.9,0.3l0,0
			C55,45.3,54.5,45.1,54.2,44.7z M26.7,43.1c-0.6-0.6-0.6-1.5-0.1-2.1l0,0c0.6-0.6,1.5-0.6,2.1-0.1l0,0c0.6,0.6,0.6,1.5,0.1,2.1l0,0
			c-0.3,0.3-0.7,0.5-1.1,0.5l0,0C27.4,43.5,27,43.4,26.7,43.1z M58.9,40.9c-0.7-0.5-0.8-1.5-0.2-2.1l0,0c0.5-0.6,1.5-0.8,2.1-0.2
			l0,0c0.6,0.5,0.7,1.5,0.2,2.1l0,0l0,0l0,0c-0.3,0.4-0.7,0.6-1.2,0.6l0,0C59.5,41.2,59.1,41.1,58.9,40.9z M22.7,38.2
			c-0.4-0.7-0.2-1.6,0.5-2.1l0,0c0.7-0.4,1.6-0.2,2.1,0.5l0,0c0.4,0.7,0.2,1.6-0.5,2.1l0,0c-0.2,0.1-0.5,0.2-0.8,0.2l0,0
			C23.4,38.9,22.9,38.7,22.7,38.2z M62.3,36c-0.8-0.3-1.1-1.2-0.8-2l0,0c0.3-0.8,1.2-1.1,2-0.8l0,0c0.8,0.3,1.1,1.2,0.8,2l0,0l0,0
			l0,0c-0.2,0.6-0.8,0.9-1.4,0.9l0,0C62.7,36.1,62.5,36.1,62.3,36z M20.1,32.3c-0.2-0.8,0.2-1.6,1-1.8l0,0c0.8-0.2,1.6,0.2,1.9,1
			l0,0c0.2,0.8-0.2,1.6-1,1.9l0,0c-0.1,0-0.3,0.1-0.4,0.1l0,0C20.9,33.4,20.3,33,20.1,32.3z M64.3,30.3c-0.8-0.1-1.4-0.9-1.3-1.7
			l0,0c0.1-0.8,0.9-1.4,1.7-1.3l0,0c0.8,0.1,1.4,0.9,1.3,1.7l0,0c-0.1,0.8-0.8,1.3-1.5,1.3l0,0C64.4,30.4,64.4,30.3,64.3,30.3z
			 M19.2,26L19.2,26L19.2,26C19.2,25.9,19.2,25.9,19.2,26L19.2,26c0-0.9,0.7-1.6,1.5-1.6l0,0c0.8,0,1.5,0.7,1.5,1.5l0,0l0,0l0,0l0,0
			l0,0c0,0.8-0.7,1.5-1.5,1.5l0,0l0,0l0,0C19.9,27.5,19.2,26.8,19.2,26z M19.2,26L19.2,26L19.2,26L19.2,26L19.2,26L19.2,26z
			 M63,23.1L63,23.1c-0.1-0.8,0.5-1.6,1.3-1.7l0,0c0.8-0.1,1.6,0.5,1.7,1.3l0,0c0.1,0.8-0.5,1.6-1.3,1.7l0,0c-0.1,0-0.1,0-0.2,0l0,0
			C63.7,24.4,63.1,23.8,63,23.1z M21.1,21.4c-0.8-0.2-1.3-1-1-1.9l0,0c0.2-0.8,1.1-1.3,1.9-1l0,0c0.8,0.2,1.3,1.1,1,1.9l0,0
			c-0.2,0.7-0.8,1.1-1.4,1.1l0,0C21.4,21.5,21.2,21.4,21.1,21.4z M61.5,17.7L61.5,17.7c-0.3-0.8,0-1.6,0.8-2l0,0
			c0.8-0.3,1.6,0,2,0.8l0,0l0,0l0,0c0.3,0.8,0,1.6-0.8,2l0,0c-0.2,0.1-0.4,0.1-0.6,0.1l0,0C62.3,18.6,61.7,18.3,61.5,17.7z
			 M23.1,15.7c-0.7-0.4-0.9-1.3-0.5-2.1l0,0c0.4-0.7,1.4-0.9,2.1-0.5l0,0c0.7,0.4,0.9,1.4,0.5,2.1l0,0c-0.3,0.5-0.8,0.7-1.3,0.7l0,0
			C23.6,16,23.4,15.9,23.1,15.7z M58.6,12.9L58.6,12.9c-0.5-0.6-0.4-1.6,0.2-2.1l0,0c0.7-0.5,1.6-0.4,2.1,0.2l0,0
			c0.5,0.6,0.4,1.6-0.2,2.1l0,0c-0.3,0.2-0.6,0.3-1,0.3l0,0C59.3,13.5,58.9,13.3,58.6,12.9z M26.6,10.8c-0.6-0.6-0.5-1.5,0.1-2.1
			l0,0c0.6-0.6,1.6-0.5,2.1,0.1l0,0c0.6,0.6,0.5,1.6-0.1,2.1l0,0c-0.3,0.3-0.7,0.4-1,0.4l0,0C27.3,11.3,26.9,11.2,26.6,10.8z
			 M54.5,9.1c-0.7-0.5-0.8-1.4-0.4-2.1l0,0c0.5-0.7,1.4-0.8,2.1-0.4l0,0C56.9,7.1,57,8,56.6,8.7l0,0c-0.3,0.4-0.8,0.6-1.2,0.6l0,0
			C55.1,9.4,54.8,9.3,54.5,9.1z M31.2,7.1c-0.4-0.7-0.1-1.6,0.6-2l0,0c0.7-0.4,1.6-0.1,2,0.6l0,0c0.4,0.7,0.1,1.6-0.6,2l0,0
			c-0.2,0.1-0.5,0.2-0.7,0.2l0,0C32,7.9,31.5,7.6,31.2,7.1z M49.5,6.6L49.5,6.6c-0.8-0.3-1.2-1.1-0.9-1.9l0,0
			c0.3-0.8,1.1-1.2,1.9-0.9l0,0c0.8,0.3,1.2,1.1,0.9,1.9l0,0c-0.2,0.6-0.8,1-1.4,1l0,0C49.9,6.7,49.7,6.6,49.5,6.6z M36.7,4.7
			c-0.2-0.8,0.3-1.6,1.2-1.8l0,0c0.8-0.2,1.6,0.4,1.8,1.2l0,0c0.2,0.8-0.4,1.6-1.2,1.8l0,0c-0.1,0-0.2,0-0.3,0l0,0
			C37.5,5.9,36.9,5.4,36.7,4.7z M44.1,5.4L44.1,5.4c-0.8-0.1-1.5-0.8-1.4-1.6l0,0c0.1-0.8,0.8-1.4,1.6-1.4l0,0
			c0.8,0.1,1.5,0.8,1.4,1.6l0,0C45.6,4.8,45,5.4,44.1,5.4L44.1,5.4C44.1,5.4,44.1,5.4,44.1,5.4z"/>
		<path class="st2" d="M42.7,54.4c-15.7,0-28.5-12.8-28.5-28.5S27-2.6,42.7-2.6s28.5,12.8,28.5,28.5S58.4,54.4,42.7,54.4z M42.7,0.4
			c-14.1,0-25.5,11.4-25.5,25.5s11.4,25.5,25.5,25.5S68.2,40,68.2,25.9S56.8,0.4,42.7,0.4z"/>
	</g>
	<g>
		<rect x="17.2" y="17.1" class="st4" width="61" height="27.5"/>
		<circle class="st2" cx="47.7" cy="30.9" r="20.5"/>
		<rect x="9.2" y="9.1" class="st3" width="77" height="43.5"/>
	</g>
	<g>
		<path class="st2" d="M86.2,54.1h-77c-0.8,0-1.5-0.7-1.5-1.5V9.1c0-0.8,0.7-1.5,1.5-1.5h77c0.8,0,1.5,0.7,1.5,1.5v43.5
			C87.7,53.5,87,54.1,86.2,54.1z M10.7,51.1h74V10.7h-74V51.1z"/>
		<g class="st2">
			<path d="M27.2,30.9c0-6.1,2.6-11.5,6.8-15.2H17.2c-0.8,0-1.5,0.7-1.5,1.5v27.5c0,0.8,0.7,1.5,1.5,1.5H34
				C29.8,42.4,27.2,37,27.2,30.9z"/>
			<path d="M78.2,15.7H61.4c4.2,3.8,6.8,9.2,6.8,15.2s-2.6,11.5-6.8,15.2h16.8c0.8,0,1.5-0.7,1.5-1.5V17.1
				C79.7,16.3,79,15.7,78.2,15.7z"/>
		</g>
	</g>
	<g>
		<polyline class="st3" points="91.2,14.1 91.2,57.7 14.2,57.7 		"/>
		<polyline class="st3" points="86.2,9.1 86.2,52.7 9.2,52.7 		"/>
		<rect x="12.2" y="12.1" class="st4" width="61" height="27.5"/>
		<circle class="st2" cx="42.7" cy="25.9" r="20.5"/>
		<rect x="4.2" y="4.1" class="st3" width="77" height="43.5"/>
	</g>
	<g>
		<path class="st2" d="M91.2,59.1h-77c-0.8,0-1.5-0.7-1.5-1.5s0.7-1.5,1.5-1.5h75.5v-42c0-0.8,0.7-1.5,1.5-1.5s1.5,0.7,1.5,1.5v43.5
			C92.7,58.5,92,59.1,91.2,59.1z"/>
		<path class="st2" d="M86.2,54.1h-77c-0.8,0-1.5-0.7-1.5-1.5s0.7-1.5,1.5-1.5h75.5v-42c0-0.8,0.7-1.5,1.5-1.5s1.5,0.7,1.5,1.5v43.5
			C87.7,53.5,87,54.1,86.2,54.1z"/>
		<path class="st2" d="M81.2,49.1h-77c-0.8,0-1.5-0.7-1.5-1.5V4.1c0-0.8,0.7-1.5,1.5-1.5h77c0.8,0,1.5,0.7,1.5,1.5v43.5
			C82.7,48.5,82,49.1,81.2,49.1z M5.7,46.1h74V5.7h-74V46.1z"/>
		<g class="st2">
			<path d="M22.2,25.9c0-6.1,2.6-11.5,6.8-15.2H12.2c-0.8,0-1.5,0.7-1.5,1.5v27.5c0,0.8,0.7,1.5,1.5,1.5H29
				C24.8,37.4,22.2,32,22.2,25.9z"/>
			<path d="M73.2,10.7H56.4c4.2,3.8,6.8,9.2,6.8,15.2s-2.6,11.5-6.8,15.2h16.8c0.8,0,1.5-0.7,1.5-1.5V12.1
				C74.7,11.3,74,10.7,73.2,10.7z"/>
		</g>
	</g>
	<g>
		<polyline class="st3" points="51.8,1.8 56.7,-4.7 47.7,-3.7 38.7,-4.7 43.6,1.8 		"/>
		<path class="st9" d="M27.5,40c0-13,9-33.6,20.2-33.6S67.9,27,67.9,40s-9,13.4-20.2,13.4S27.5,53,27.5,40z"/>
	</g>
	<g>
		<path class="st2" d="M51.8,3.3c-0.3,0-0.6-0.1-0.9-0.3c-0.7-0.5-0.8-1.4-0.3-2.1l2.8-3.7l-5.5,0.6c-0.1,0-0.2,0-0.3,0l-5.5-0.6
			l2.8,3.7c0.5,0.7,0.4,1.6-0.3,2.1S43,3.4,42.5,2.7l-4.9-6.5c-0.4-0.5-0.4-1.1-0.1-1.6c0.3-0.5,0.9-0.8,1.5-0.8l8.8,1l8.8-1
			c0.6-0.1,1.2,0.2,1.5,0.8s0.3,1.2-0.1,1.6l-4.9,6.5C52.7,3.1,52.2,3.3,51.8,3.3z"/>
		<path class="st2" d="M47.7,54.9C37.5,54.9,26,54.9,26,40c0-13.9,9.7-35.1,21.7-35.1S69.4,26.1,69.4,40
			C69.4,54.9,57.9,54.9,47.7,54.9z M47.7,7.9c-4.4,0-9.1,4.1-12.9,11.1c-3.5,6.5-5.7,14.7-5.7,20.9c-0.1,11.4,7,12,18.6,12
			S66.4,51.3,66.4,40c0-6.3-2.2-14.5-5.7-20.9C56.8,12,52.1,7.9,47.7,7.9z"/>
	</g>
	<g>
		<line class="st3" x1="27.7" y1="11.9" x2="27.7" y2="49.9"/>
		<line class="st3" x1="17.7" y1="11.9" x2="17.7" y2="49.9"/>
		<line class="st3" x1="67.7" y1="11.9" x2="67.7" y2="49.9"/>
		<line class="st3" x1="77.7" y1="11.9" x2="77.7" y2="49.9"/>
		<polygon class="st3" points="14.2,6.9 47.7,-13.1 81.2,6.9 		"/>
		<line class="st3" x1="14.2" y1="54.9" x2="81.2" y2="54.9"/>
		<line class="st3" x1="9.2" y1="59.9" x2="86.2" y2="59.9"/>
		<line class="st3" x1="4.2" y1="64.9" x2="91.2" y2="64.9"/>
	</g>
	<g>
		<path class="st2" d="M27.7,51.4c-0.8,0-1.5-0.7-1.5-1.5v-38c0-0.8,0.7-1.5,1.5-1.5s1.5,0.7,1.5,1.5v38
			C29.2,50.7,28.5,51.4,27.7,51.4z"/>
		<path class="st2" d="M17.7,51.4c-0.8,0-1.5-0.7-1.5-1.5v-38c0-0.8,0.7-1.5,1.5-1.5s1.5,0.7,1.5,1.5v38
			C19.2,50.7,18.5,51.4,17.7,51.4z"/>
		<path class="st2" d="M67.7,51.4c-0.8,0-1.5-0.7-1.5-1.5v-38c0-0.8,0.7-1.5,1.5-1.5s1.5,0.7,1.5,1.5v38
			C69.2,50.7,68.5,51.4,67.7,51.4z"/>
		<path class="st2" d="M77.7,51.4c-0.8,0-1.5-0.7-1.5-1.5v-38c0-0.8,0.7-1.5,1.5-1.5s1.5,0.7,1.5,1.5v38
			C79.2,50.7,78.5,51.4,77.7,51.4z"/>
		<path class="st2" d="M81.2,8.4L81.2,8.4h-67c-0.7,0-1.3-0.5-1.4-1.1c-0.2-0.7,0.1-1.3,0.7-1.7l33.5-20c0.5-0.3,1.1-0.3,1.5,0
			L81.9,5.5c0.5,0.2,0.9,0.8,0.9,1.4C82.7,7.7,82,8.4,81.2,8.4z M19.6,5.4h56.1l-28-16.8L19.6,5.4z"/>
		<path class="st2" d="M81.2,56.4h-67c-0.8,0-1.5-0.7-1.5-1.5s0.7-1.5,1.5-1.5h67c0.8,0,1.5,0.7,1.5,1.5S82,56.4,81.2,56.4z"/>
		<path class="st2" d="M86.2,61.4h-77c-0.8,0-1.5-0.7-1.5-1.5s0.7-1.5,1.5-1.5h77c0.8,0,1.5,0.7,1.5,1.5S87,61.4,86.2,61.4z"/>
		<path class="st2" d="M91.2,66.4h-87c-0.8,0-1.5-0.7-1.5-1.5s0.7-1.5,1.5-1.5h87c0.8,0,1.5,0.7,1.5,1.5S92,66.4,91.2,66.4z"/>
	</g>
	<g>
		<line class="st3" x1="27.7" y1="11.9" x2="27.7" y2="49.9"/>
		<line class="st3" x1="17.7" y1="11.9" x2="17.7" y2="49.9"/>
		<line class="st3" x1="47.7" y1="11.9" x2="47.7" y2="49.9"/>
		<line class="st3" x1="37.7" y1="11.9" x2="37.7" y2="49.9"/>
		<line class="st3" x1="67.7" y1="11.9" x2="67.7" y2="49.9"/>
		<line class="st3" x1="77.7" y1="11.9" x2="77.7" y2="49.9"/>
		<line class="st3" x1="57.7" y1="11.9" x2="57.7" y2="49.9"/>
		<polygon class="st3" points="14.2,6.9 47.7,-13.1 81.2,6.9 		"/>
		<line class="st3" x1="14.2" y1="54.9" x2="81.2" y2="54.9"/>
		<line class="st3" x1="9.2" y1="59.9" x2="86.2" y2="59.9"/>
		<line class="st3" x1="4.2" y1="64.9" x2="91.2" y2="64.9"/>
	</g>
</g>
<g id="Layer_2">
	<polygon class="st11" points="94.7,61.1 14.7,61.1 14.7,58.1 91.7,58.1 91.7,14.6 94.7,14.6 	"/>
	<polygon class="st11" points="88.7,55.1 8.7,55.1 8.7,52.1 85.7,52.1 85.7,8.6 88.7,8.6 	"/>
	<path class="st11" d="M82.7,49.1H2.4V2.6h80.3V49.1z M5.4,46.1h74.3V5.6H5.4V46.1z"/>
	<path class="st12" d="M81.2,4.1"/>
</g>
<g id="Layer_3">
</g>
<g id="Layer_4">
	<g>
		<path class="st11" d="M22.2,25.8c0-6,2.6-11.4,6.7-15.1H10.6v30.4H29C24.8,37.3,22.2,31.9,22.2,25.8z"/>
		<path class="st11" d="M74.5,10.7h-18c4.1,3.7,6.7,9.1,6.7,15.1c0,6.1-2.6,11.5-6.8,15.2h18.1V10.7z"/>
	</g>
	<g>
		<path class="st11" d="M44.5,10.6v3c1.2,0.2,2.2,0.6,3,1.2s1.5,1.5,2.2,2.8l-3,1.7c-0.9-1.6-2.1-2.5-3.5-2.5
			c-0.9,0-1.6,0.3-2.2,0.8s-0.9,1.2-0.9,2c0,0.7,0.2,1.3,0.7,1.8c0.5,0.5,1.4,1,2.9,1.7c1.2,0.6,2.3,1.1,3.1,1.6
			c0.8,0.5,1.4,1,1.8,1.4c1.2,1.2,1.7,2.8,1.7,4.5c0,1.7-0.5,3.3-1.6,4.6c-1,1.3-2.4,2.2-4.1,2.7v3.2h-2.7V38c-2-0.3-3.5-1-4.6-2.1
			s-1.8-2.7-2.3-4.9l3.4-0.7c0.5,1.6,1,2.7,1.7,3.3c0.7,0.6,1.6,1,2.8,1c1.1,0,2.1-0.4,2.8-1.1c0.7-0.7,1.1-1.6,1.1-2.8
			c0-1-0.3-1.8-0.9-2.4c-0.3-0.3-0.8-0.6-1.4-1c-0.6-0.4-1.4-0.8-2.4-1.2c-2-0.9-3.3-1.7-3.9-2.5c-1-1.1-1.5-2.5-1.5-4
			c0-0.7,0.1-1.4,0.4-2.1c0.2-0.6,0.6-1.2,1-1.7c0.4-0.5,1-1,1.7-1.3c0.7-0.4,1.4-0.7,2.2-0.9v-3H44.5z"/>
	</g>
</g>
</svg>
